<?xml version="1.0" encoding="UTF-8" standalone="no"?>
<!DOCTYPE svg PUBLIC "-//W3C//DTD SVG 1.1//EN"
 "http://www.w3.org/Graphics/SVG/1.1/DTD/svg11.dtd">
<!-- Generated by graphviz version 2.38.0 (20140413.2041)
 -->
<!-- Title: %3 Pages: 1 -->
<svg width="349pt" height="218pt"
 viewBox="0.00 0.00 348.87 218.30" xmlns="http://www.w3.org/2000/svg" xmlns:xlink="http://www.w3.org/1999/xlink">
<g id="graph0" class="graph" transform="scale(1 1) rotate(0) translate(155.59 103.958)">
<title>%3</title>
<polygon fill="#333333" stroke="none" points="-155.59,114.343 -155.59,-103.958 193.28,-103.958 193.28,114.343 -155.59,114.343"/>
<text text-anchor="middle" x="18.8452" y="103.743" font-family="Times,serif" font-size="8.00" fill="white">Binder Call Graph</text>
<!-- process exited -->
<g id="node1" class="node"><title>process exited</title>
<ellipse fill="#006699" stroke="white" cx="-83.9958" cy="5.8731" rx="67.6881" ry="18"/>
<text text-anchor="middle" x="-83.9958" y="9.5731" font-family="Helvetica,sans-Serif" font-size="14.00" fill="white">process exited</text>
</g>
<!-- /system/bin/surfaceflinger -->
<g id="node2" class="node"><title>/system/bin/surfaceflinger</title>
<ellipse fill="#006699" stroke="white" cx="9.19007" cy="-0.230066" rx="110.48" ry="18"/>
<text text-anchor="middle" x="9.19007" y="3.46993" font-family="Helvetica,sans-Serif" font-size="14.00" fill="white">/system/bin/surfaceflinger</text>
</g>
<!-- process exited&#45;&gt;/system/bin/surfaceflinger -->
<g id="edge1" class="edge"><title>process exited&#45;&gt;/system/bin/surfaceflinger</title>
<path fill="none" stroke="cyan" d="M-18.2648,1.56808C-18.2045,1.56413 -18.1443,1.56019 -18.0842,1.55625"/>
<polygon fill="cyan" stroke="cyan" points="-28.1132,-1.28936 -17.904,1.54445 -27.6521,5.69569 -28.1132,-1.28936"/>
</g>
<!-- system_server -->
<g id="node4" class="node"><title>system_server</title>
<ellipse fill="#006699" stroke="white" cx="-48.3311" cy="-37.0746" rx="68.4888" ry="18"/>
<text text-anchor="middle" x="-48.3311" y="-33.3746" font-family="Helvetica,sans-Serif" font-size="14.00" fill="white">system_server</text>
</g>
<!-- /system/bin/surfaceflinger&#45;&gt;system_server -->
<g id="edge3" class="edge"><title>/system/bin/surfaceflinger&#45;&gt;system_server</title>
<path fill="none" stroke="white" d="M-38.9138,-16.4988C-39.0238,-16.6002 -39.1331,-16.7017 -39.2418,-16.8032"/>
<polygon fill="white" stroke="white" points="-36.7339,-9.44678 -41.4282,-18.945 -31.8353,-14.4473 -36.7339,-9.44678"/>
</g>
<!-- com.p3app2 -->
<g id="node3" class="node"><title>com.p3app2</title>
<ellipse fill="#006699" stroke="white" cx="45.7858" cy="75.3426" rx="59.5901" ry="18"/>
<text text-anchor="middle" x="45.7858" y="79.0426" font-family="Helvetica,sans-Serif" font-size="14.00" fill="white">com.p3app2</text>
</g>
<!-- com.p3app2&#45;&gt;/system/bin/surfaceflinger -->
<g id="edge2" class="edge"><title>com.p3app2&#45;&gt;/system/bin/surfaceflinger</title>
<path fill="none" stroke="white" d="M37.1131,57.433C32.7244,48.3698 27.3028,37.174 22.408,27.0658"/>
<polygon fill="white" stroke="white" points="19.1356,28.3387 17.9273,17.813 25.4358,25.2878 19.1356,28.3387"/>
</g>
<!-- system_server&#45;&gt;/system/bin/surfaceflinger -->
<g id="edge6" class="edge"><title>system_server&#45;&gt;/system/bin/surfaceflinger</title>
<path fill="none" stroke="white" d="M-3.35082,-23.5279C-3.22555,-23.4244 -3.10083,-23.3208 -2.97667,-23.2171"/>
<polygon fill="white" stroke="white" points="-2.80252,-27.8143 2.18363,-18.466 -7.54387,-22.6645 -2.80252,-27.8143"/>
</g>
<!-- system_server&#45;&gt;/system/bin/surfaceflinger -->
<g id="edge7" class="edge"><title>system_server&#45;&gt;/system/bin/surfaceflinger</title>
<path fill="none" stroke="cyan" d="M-22.2633,-20.3772C-22.0998,-20.2725 -21.9362,-20.1677 -21.7725,-20.0628"/>
<polygon fill="cyan" stroke="cyan" points="-24.8608,-26.1976 -18.328,-17.8565 -28.6366,-20.3031 -24.8608,-26.1976"/>
</g>
<!-- com.android.launcher3 -->
<g id="node5" class="node"><title>com.android.launcher3</title>
<ellipse fill="#006699" stroke="white" cx="88.5392" cy="-8.70424" rx="100.983" ry="18"/>
<text text-anchor="middle" x="88.5392" y="-5.00424" font-family="Helvetica,sans-Serif" font-size="14.00" fill="white">com.android.launcher3</text>
</g>
<!-- com.android.launcher3&#45;&gt;/system/bin/surfaceflinger -->
<g id="edge4" class="edge"><title>com.android.launcher3&#45;&gt;/system/bin/surfaceflinger</title>
<path fill="none" stroke="white" d="M9.24758,-0.236208C9.23805,-0.235189 9.22968,-0.234296 9.22251,-0.23353"/>
<polygon fill="white" stroke="white" points="19.5372,2.13763 9.20452,-0.231609 18.7594,-4.823 19.5372,2.13763"/>
</g>
<!-- com.android.gallery3d -->
<g id="node6" class="node"><title>com.android.gallery3d</title>
<ellipse fill="#006699" stroke="white" cx="30.7837" cy="-81.9575" rx="97.4827" ry="18"/>
<text text-anchor="middle" x="30.7837" y="-78.2575" font-family="Helvetica,sans-Serif" font-size="14.00" fill="white">com.android.gallery3d</text>
</g>
<!-- com.android.gallery3d&#45;&gt;/system/bin/surfaceflinger -->
<g id="edge5" class="edge"><title>com.android.gallery3d&#45;&gt;/system/bin/surfaceflinger</title>
<path fill="none" stroke="cyan" d="M25.9913,-63.8196C23.2236,-53.3444 19.6841,-39.9479 16.5682,-28.1547"/>
<polygon fill="cyan" stroke="cyan" points="19.9074,-27.0915 13.969,-18.3173 13.1397,-28.8797 19.9074,-27.0915"/>
</g>
<!-- com.android.systemui -->
<g id="node7" class="node"><title>com.android.systemui</title>
<ellipse fill="#006699" stroke="white" cx="-41.9719" cy="46.7507" rx="96.6831" ry="18"/>
<text text-anchor="middle" x="-41.9719" y="50.4507" font-family="Helvetica,sans-Serif" font-size="14.00" fill="white">com.android.systemui</text>
</g>
<!-- com.android.systemui&#45;&gt;/system/bin/surfaceflinger -->
<g id="edge9" class="edge"><title>com.android.systemui&#45;&gt;/system/bin/surfaceflinger</title>
<path fill="none" stroke="white" d="M-22.6297,28.9893C-20.9743,27.4692 -19.2818,25.915 -17.5823,24.3544"/>
<polygon fill="white" stroke="white" points="-19.9124,21.7422 -10.1794,17.5565 -15.1778,26.8982 -19.9124,21.7422"/>
</g>
<!-- com.android.systemui&#45;&gt;system_server -->
<g id="edge8" class="edge"><title>com.android.systemui&#45;&gt;system_server</title>
<path fill="none" stroke="white" d="M-43.3517,28.5619C-44.1767,17.6871 -45.2427,3.63517 -46.1766,-8.67511"/>
<polygon fill="white" stroke="white" points="-49.6873,-8.68512 -46.9539,-18.9213 -42.7074,-9.2147 -49.6873,-8.68512"/>
</g>
</g>
</svg>
