<?xml version="1.0" encoding="UTF-8" standalone="no"?>
<!DOCTYPE svg PUBLIC "-//W3C//DTD SVG 1.1//EN"
 "http://www.w3.org/Graphics/SVG/1.1/DTD/svg11.dtd">
<!-- Generated by graphviz version 2.38.0 (20140413.2041)
 -->
<!-- Title: %3 Pages: 1 -->
<svg width="1927pt" height="565pt"
 viewBox="0.00 0.00 1927.49 565.00" xmlns="http://www.w3.org/2000/svg" xmlns:xlink="http://www.w3.org/1999/xlink">
<g id="graph0" class="graph" transform="scale(1 1) rotate(0) translate(4 561)">
<title>%3</title>
<polygon fill="#333333" stroke="none" points="-4,4 -4,-561 1923.49,-561 1923.49,4 -4,4"/>
<text text-anchor="middle" x="959.747" y="-6.6" font-family="Times,serif" font-size="8.00" fill="white">Binder Call Graph</text>
<!-- process exited -->
<g id="node1" class="node"><title>process exited</title>
<ellipse fill="#006699" stroke="white" cx="711" cy="-35" rx="67.6881" ry="18"/>
<text text-anchor="middle" x="711" y="-31.3" font-family="Helvetica,sans-Serif" font-size="14.00" fill="white">process exited</text>
</g>
<!-- /system/bin/surfaceflinger -->
<g id="node2" class="node"><title>/system/bin/surfaceflinger</title>
<ellipse fill="#006699" stroke="white" cx="439" cy="-179" rx="110.48" ry="18"/>
<text text-anchor="middle" x="439" y="-175.3" font-family="Helvetica,sans-Serif" font-size="14.00" fill="white">/system/bin/surfaceflinger</text>
</g>
<!-- process exited&#45;&gt;/system/bin/surfaceflinger -->
<g id="edge1" class="edge"><title>process exited&#45;&gt;/system/bin/surfaceflinger</title>
<path fill="none" stroke="cyan" d="M646.141,-40.0682C539.43,-47.4288 336.44,-64.4991 315,-89 304.463,-101.041 306.186,-111.647 315,-125 326.033,-141.715 343.54,-153.177 361.961,-161.03"/>
<polygon fill="cyan" stroke="cyan" points="360.761,-164.32 371.349,-164.71 363.315,-157.802 360.761,-164.32"/>
</g>
<!-- system_server -->
<g id="node4" class="node"><title>system_server</title>
<ellipse fill="#006699" stroke="white" cx="408" cy="-395" rx="68.4888" ry="18"/>
<text text-anchor="middle" x="408" y="-391.3" font-family="Helvetica,sans-Serif" font-size="14.00" fill="white">system_server</text>
</g>
<!-- process exited&#45;&gt;system_server -->
<g id="edge22" class="edge"><title>process exited&#45;&gt;system_server</title>
<path fill="none" stroke="cyan" d="M643.871,-37.4957C483.859,-41.5973 89.6596,-55.0617 41,-89 5.27908,-113.914 0,-134.449 0,-178 0,-178 0,-178 0,-252 0,-312.164 47.6813,-315.131 102,-341 174.427,-375.494 266.032,-387.795 330.056,-392.048"/>
<polygon fill="cyan" stroke="cyan" points="329.892,-395.545 340.087,-392.664 330.32,-388.558 329.892,-395.545"/>
</g>
<!-- com.android.gallery3d -->
<g id="node5" class="node"><title>com.android.gallery3d</title>
<ellipse fill="#006699" stroke="white" cx="886" cy="-251" rx="97.4827" ry="18"/>
<text text-anchor="middle" x="886" y="-247.3" font-family="Helvetica,sans-Serif" font-size="14.00" fill="white">com.android.gallery3d</text>
</g>
<!-- process exited&#45;&gt;com.android.gallery3d -->
<g id="edge4" class="edge"><title>process exited&#45;&gt;com.android.gallery3d</title>
<path fill="none" stroke="cyan" d="M715.908,-53.1737C721.805,-71.9572 732.953,-102.396 749,-125 778.473,-166.516 823.809,-204.438 854.164,-227.365"/>
<polygon fill="cyan" stroke="cyan" points="852.192,-230.26 862.303,-233.424 856.372,-224.645 852.192,-230.26"/>
</g>
<!-- com.android.settings -->
<g id="node6" class="node"><title>com.android.settings</title>
<ellipse fill="#006699" stroke="white" cx="678" cy="-251" rx="92.0841" ry="18"/>
<text text-anchor="middle" x="678" y="-247.3" font-family="Helvetica,sans-Serif" font-size="14.00" fill="white">com.android.settings</text>
</g>
<!-- process exited&#45;&gt;com.android.settings -->
<g id="edge8" class="edge"><title>process exited&#45;&gt;com.android.settings</title>
<path fill="none" stroke="cyan" d="M708.355,-53.1508C702.647,-90.1683 689.131,-177.819 682.223,-222.614"/>
<polygon fill="cyan" stroke="cyan" points="678.722,-222.351 680.657,-232.768 685.641,-223.418 678.722,-222.351"/>
</g>
<!-- com.android.systemui -->
<g id="node7" class="node"><title>com.android.systemui</title>
<ellipse fill="#006699" stroke="white" cx="531" cy="-467" rx="96.6831" ry="18"/>
<text text-anchor="middle" x="531" y="-463.3" font-family="Helvetica,sans-Serif" font-size="14.00" fill="white">com.android.systemui</text>
</g>
<!-- process exited&#45;&gt;com.android.systemui -->
<g id="edge40" class="edge"><title>process exited&#45;&gt;com.android.systemui</title>
<path fill="none" stroke="cyan" d="M777.855,-38.0575C909.441,-42.7988 1191.85,-56.6638 1221,-89 1231.71,-100.884 1221.32,-109.003 1221,-125 1219.89,-180.589 1216,-194.4 1216,-250 1216,-250 1216,-250 1216,-324 1216,-440.632 830.433,-462.186 637.84,-465.677"/>
<polygon fill="cyan" stroke="cyan" points="637.631,-462.18 627.691,-465.848 637.748,-469.179 637.631,-462.18"/>
</g>
<!-- com.android.launcher3 -->
<g id="node9" class="node"><title>com.android.launcher3</title>
<ellipse fill="#006699" stroke="white" cx="425" cy="-107" rx="100.983" ry="18"/>
<text text-anchor="middle" x="425" y="-103.3" font-family="Helvetica,sans-Serif" font-size="14.00" fill="white">com.android.launcher3</text>
</g>
<!-- process exited&#45;&gt;com.android.launcher3 -->
<g id="edge13" class="edge"><title>process exited&#45;&gt;com.android.launcher3</title>
<path fill="none" stroke="cyan" d="M663.13,-47.7164C616.222,-59.1975 544.319,-76.7961 491.794,-89.6518"/>
<polygon fill="cyan" stroke="cyan" points="490.773,-86.2983 481.892,-92.0754 492.437,-93.0976 490.773,-86.2983"/>
</g>
<!-- com.android.cellbroadcastreceiver -->
<g id="node10" class="node"><title>com.android.cellbroadcastreceiver</title>
<ellipse fill="#006699" stroke="white" cx="903" cy="-107" rx="144.874" ry="18"/>
<text text-anchor="middle" x="903" y="-103.3" font-family="Helvetica,sans-Serif" font-size="14.00" fill="white">com.android.cellbroadcastreceiver</text>
</g>
<!-- process exited&#45;&gt;com.android.cellbroadcastreceiver -->
<g id="edge20" class="edge"><title>process exited&#45;&gt;com.android.cellbroadcastreceiver</title>
<path fill="none" stroke="cyan" d="M749.393,-49.9973C777.955,-60.4107 817.314,-74.7602 849.039,-86.3268"/>
<polygon fill="cyan" stroke="cyan" points="848.026,-89.6826 858.62,-89.8197 850.424,-83.1061 848.026,-89.6826"/>
</g>
<!-- com.android.nfc -->
<g id="node11" class="node"><title>com.android.nfc</title>
<ellipse fill="#006699" stroke="white" cx="1139" cy="-107" rx="73.387" ry="18"/>
<text text-anchor="middle" x="1139" y="-103.3" font-family="Helvetica,sans-Serif" font-size="14.00" fill="white">com.android.nfc</text>
</g>
<!-- process exited&#45;&gt;com.android.nfc -->
<g id="edge23" class="edge"><title>process exited&#45;&gt;com.android.nfc</title>
<path fill="none" stroke="cyan" d="M769.62,-44.0238C838.562,-53.6814 956.374,-70.8751 1057,-89 1063.1,-90.0994 1069.45,-91.3044 1075.79,-92.5492"/>
<polygon fill="cyan" stroke="cyan" points="1075.21,-96.0038 1085.71,-94.5289 1076.58,-89.1392 1075.21,-96.0038"/>
</g>
<!-- com.android.inputmethod.latin -->
<g id="node12" class="node"><title>com.android.inputmethod.latin</title>
<ellipse fill="#006699" stroke="white" cx="217" cy="-251" rx="129.177" ry="18"/>
<text text-anchor="middle" x="217" y="-247.3" font-family="Helvetica,sans-Serif" font-size="14.00" fill="white">com.android.inputmethod.latin</text>
</g>
<!-- process exited&#45;&gt;com.android.inputmethod.latin -->
<g id="edge43" class="edge"><title>process exited&#45;&gt;com.android.inputmethod.latin</title>
<path fill="none" stroke="cyan" d="M643.551,-36.4098C484.463,-38.0769 96.193,-46.5023 57,-89 9.09995,-140.939 106.78,-199.099 169.615,-229.288"/>
<polygon fill="cyan" stroke="cyan" points="168.454,-232.611 178.992,-233.712 171.441,-226.28 168.454,-232.611"/>
</g>
<!-- com.android.messaging -->
<g id="node14" class="node"><title>com.android.messaging</title>
<ellipse fill="#006699" stroke="white" cx="1349" cy="-179" rx="104.782" ry="18"/>
<text text-anchor="middle" x="1349" y="-175.3" font-family="Helvetica,sans-Serif" font-size="14.00" fill="white">com.android.messaging</text>
</g>
<!-- process exited&#45;&gt;com.android.messaging -->
<g id="edge31" class="edge"><title>process exited&#45;&gt;com.android.messaging</title>
<path fill="none" stroke="cyan" d="M778.341,-37.2015C904.388,-40.3247 1170.73,-51.3083 1254,-89 1285.45,-103.233 1313.18,-132.16 1330.44,-153.183"/>
<polygon fill="cyan" stroke="cyan" points="1327.78,-155.451 1336.75,-161.084 1333.25,-151.085 1327.78,-155.451"/>
</g>
<!-- com.android.phone -->
<g id="node15" class="node"><title>com.android.phone</title>
<ellipse fill="#006699" stroke="white" cx="1349" cy="-467" rx="86.3847" ry="18"/>
<text text-anchor="middle" x="1349" y="-463.3" font-family="Helvetica,sans-Serif" font-size="14.00" fill="white">com.android.phone</text>
</g>
<!-- process exited&#45;&gt;com.android.phone -->
<g id="edge44" class="edge"><title>process exited&#45;&gt;com.android.phone</title>
<path fill="none" stroke="cyan" d="M778.902,-35.435C888.675,-36.0152 1111.18,-43.4027 1293,-89 1383.06,-111.586 1482,-85.1526 1482,-178 1482,-178 1482,-178 1482,-324 1482,-378.724 1428.73,-421.055 1389.62,-444.762"/>
<polygon fill="cyan" stroke="cyan" points="1387.37,-442.022 1380.52,-450.101 1390.92,-448.059 1387.37,-442.022"/>
</g>
<!-- com.android.deskclock -->
<g id="node18" class="node"><title>com.android.deskclock</title>
<ellipse fill="#006699" stroke="white" cx="167" cy="-107" rx="100.983" ry="18"/>
<text text-anchor="middle" x="167" y="-103.3" font-family="Helvetica,sans-Serif" font-size="14.00" fill="white">com.android.deskclock</text>
</g>
<!-- process exited&#45;&gt;com.android.deskclock -->
<g id="edge36" class="edge"><title>process exited&#45;&gt;com.android.deskclock</title>
<path fill="none" stroke="cyan" d="M650.199,-43.049C567.007,-52.7995 413.067,-71.2188 282,-89 271.997,-90.357 261.514,-91.8327 251.118,-93.3288"/>
<polygon fill="cyan" stroke="cyan" points="250.592,-89.8684 241.198,-94.7664 251.596,-96.7961 250.592,-89.8684"/>
</g>
<!-- /system/bin/surfaceflinger&#45;&gt;system_server -->
<g id="edge6" class="edge"><title>/system/bin/surfaceflinger&#45;&gt;system_server</title>
<path fill="none" stroke="white" d="M424.883,-197.151C408.874,-234.26 395.335,-322.253 397.909,-366.946"/>
<polygon fill="white" stroke="white" points="394.441,-367.446 398.883,-377.065 401.409,-366.775 394.441,-367.446"/>
</g>
<!-- /system/bin/surfaceflinger&#45;&gt;system_server -->
<g id="edge21" class="edge"><title>/system/bin/surfaceflinger&#45;&gt;system_server</title>
<path fill="none" stroke="white" stroke-dasharray="1,5" d="M448.148,-197.151C453.442,-234.509 441.291,-323.436 425.616,-367.839"/>
<polygon fill="white" stroke="white" points="421.895,-377.359 421.344,-366.407 423.715,-372.702 425.535,-368.045 425.535,-368.045 425.535,-368.045 423.715,-372.702 429.727,-369.683 421.895,-377.359 421.895,-377.359"/>
</g>
<!-- /system/bin/surfaceflinger&#45;&gt;com.android.gallery3d -->
<g id="edge5" class="edge"><title>/system/bin/surfaceflinger&#45;&gt;com.android.gallery3d</title>
<path fill="none" stroke="white" stroke-dasharray="1,5" d="M515.979,-191.934C584.898,-202.634 688.708,-218.79 779,-233 787.438,-234.328 796.248,-235.72 805.035,-237.111"/>
<polygon fill="white" stroke="white" points="814.923,-238.678 804.342,-241.557 809.985,-237.895 805.046,-237.112 805.046,-237.112 805.046,-237.112 809.985,-237.895 805.751,-232.668 814.923,-238.678 814.923,-238.678"/>
</g>
<!-- /system/bin/surfaceflinger&#45;&gt;com.android.settings -->
<g id="edge11" class="edge"><title>/system/bin/surfaceflinger&#45;&gt;com.android.settings</title>
<path fill="none" stroke="white" stroke-dasharray="1,5" d="M481.155,-195.709C517.473,-207.129 570.043,-222.532 611.876,-234.014"/>
<polygon fill="white" stroke="white" points="621.716,-236.696 610.885,-238.408 616.892,-235.382 612.068,-234.067 612.068,-234.067 612.068,-234.067 616.892,-235.382 613.251,-229.725 621.716,-236.696 621.716,-236.696"/>
</g>
<!-- /system/bin/surfaceflinger&#45;&gt;com.android.settings -->
<g id="edge12" class="edge"><title>/system/bin/surfaceflinger&#45;&gt;com.android.settings</title>
<path fill="none" stroke="white" d="M498.773,-194.25C538.571,-205.075 589.983,-220.045 627.699,-231.747"/>
<polygon fill="white" stroke="white" points="626.875,-235.156 637.464,-234.8 628.964,-228.475 626.875,-235.156"/>
</g>
<!-- /system/bin/surfaceflinger&#45;&gt;com.android.systemui -->
<g id="edge16" class="edge"><title>/system/bin/surfaceflinger&#45;&gt;com.android.systemui</title>
<path fill="none" stroke="white" stroke-dasharray="1,5" d="M426.959,-197.045C430.029,-207.144 437.779,-220.394 443,-233 472.899,-305.191 491.651,-396.139 510.1,-439.996"/>
<polygon fill="white" stroke="white" points="514.285,-449.11 506.022,-441.9 512.198,-444.566 510.112,-440.022 510.112,-440.022 510.112,-440.022 512.198,-444.566 514.201,-438.144 514.285,-449.11 514.285,-449.11"/>
</g>
<!-- /system/bin/surfaceflinger&#45;&gt;com.android.systemui -->
<g id="edge41" class="edge"><title>/system/bin/surfaceflinger&#45;&gt;com.android.systemui</title>
<path fill="none" stroke="white" d="M473.747,-196.574C483.786,-206.73 491.697,-220.197 497,-233 526.647,-304.585 545.335,-394.612 543.157,-438.88"/>
<polygon fill="white" stroke="white" points="539.646,-438.814 542.148,-449.11 546.613,-439.502 539.646,-438.814"/>
</g>
<!-- /system/bin/surfaceflinger&#45;&gt;com.android.inputmethod.latin -->
<g id="edge24" class="edge"><title>/system/bin/surfaceflinger&#45;&gt;com.android.inputmethod.latin</title>
<path fill="none" stroke="white" stroke-dasharray="1,5" d="M386.284,-194.845C351.577,-205.373 306.333,-219.593 271.312,-230.956"/>
<polygon fill="white" stroke="white" points="261.723,-234.08 269.837,-226.704 266.477,-232.532 271.231,-230.983 271.231,-230.983 271.231,-230.983 266.477,-232.532 272.625,-235.261 261.723,-234.08 261.723,-234.08"/>
</g>
<!-- /system/bin/surfaceflinger&#45;&gt;com.android.inputmethod.latin -->
<g id="edge32" class="edge"><title>/system/bin/surfaceflinger&#45;&gt;com.android.inputmethod.latin</title>
<path fill="none" stroke="white" d="M395.185,-195.622C362.655,-206.275 317.877,-220.425 281.312,-231.62"/>
<polygon fill="white" stroke="white" points="280.265,-228.28 271.721,-234.546 282.307,-234.976 280.265,-228.28"/>
</g>
<!-- com.p3app2 -->
<g id="node3" class="node"><title>com.p3app2</title>
<ellipse fill="#006699" stroke="white" cx="604" cy="-107" rx="59.5901" ry="18"/>
<text text-anchor="middle" x="604" y="-103.3" font-family="Helvetica,sans-Serif" font-size="14.00" fill="white">com.p3app2</text>
</g>
<!-- com.p3app2&#45;&gt;/system/bin/surfaceflinger -->
<g id="edge2" class="edge"><title>com.p3app2&#45;&gt;/system/bin/surfaceflinger</title>
<path fill="none" stroke="white" d="M570.61,-122.166C546.266,-132.493 512.952,-146.626 485.933,-158.089"/>
<polygon fill="white" stroke="white" points="484.503,-154.894 476.664,-162.021 487.236,-161.338 484.503,-154.894"/>
</g>
<!-- system_server&#45;&gt;/system/bin/surfaceflinger -->
<g id="edge3" class="edge"><title>system_server&#45;&gt;/system/bin/surfaceflinger</title>
<path fill="none" stroke="cyan" d="M406.611,-376.768C408.457,-339.597 420.937,-251.648 430.422,-207.004"/>
<polygon fill="cyan" stroke="cyan" points="433.858,-207.675 432.638,-197.151 427.029,-206.139 433.858,-207.675"/>
</g>
<!-- system_server&#45;&gt;/system/bin/surfaceflinger -->
<g id="edge7" class="edge"><title>system_server&#45;&gt;/system/bin/surfaceflinger</title>
<path fill="none" stroke="white" d="M414.31,-377.065C423.214,-340.153 436.236,-252.175 439.731,-207.315"/>
<polygon fill="white" stroke="white" points="443.235,-207.357 440.393,-197.151 436.25,-206.902 443.235,-207.357"/>
</g>
<!-- system_server&#45;&gt;com.android.systemui -->
<g id="edge17" class="edge"><title>system_server&#45;&gt;com.android.systemui</title>
<path fill="none" stroke="white" d="M430.438,-412.059C446.586,-421.886 468.711,-434.563 488.144,-445.158"/>
<polygon fill="white" stroke="white" points="486.678,-448.344 497.14,-450.015 490.004,-442.184 486.678,-448.344"/>
</g>
<!-- /system/bin/servicemanager -->
<g id="node8" class="node"><title>/system/bin/servicemanager</title>
<ellipse fill="#006699" stroke="white" cx="468" cy="-539" rx="120.779" ry="18"/>
<text text-anchor="middle" x="468" y="-535.3" font-family="Helvetica,sans-Serif" font-size="14.00" fill="white">/system/bin/servicemanager</text>
</g>
<!-- system_server&#45;&gt;/system/bin/servicemanager -->
<g id="edge14" class="edge"><title>system_server&#45;&gt;/system/bin/servicemanager</title>
<path fill="none" stroke="cyan" d="M408.795,-413.158C410.206,-431.66 414.124,-461.606 425,-485 429.694,-495.097 436.735,-504.922 443.769,-513.315"/>
<polygon fill="cyan" stroke="cyan" points="441.198,-515.692 450.433,-520.885 446.452,-511.066 441.198,-515.692"/>
</g>
<!-- system_server&#45;&gt;com.android.phone -->
<g id="edge30" class="edge"><title>system_server&#45;&gt;com.android.phone</title>
<path fill="none" stroke="white" stroke-dasharray="1,5" d="M472.679,-400.811C636.892,-413.027 1070.25,-445.264 1259.01,-459.305"/>
<polygon fill="white" stroke="white" points="1269.17,-460.062 1258.87,-463.807 1264.19,-459.691 1259.2,-459.32 1259.2,-459.32 1259.2,-459.32 1264.19,-459.691 1259.53,-454.832 1269.17,-460.062 1269.17,-460.062"/>
</g>
<!-- com.android.settings&#45;&gt;/system/bin/surfaceflinger -->
<g id="edge10" class="edge"><title>com.android.settings&#45;&gt;/system/bin/surfaceflinger</title>
<path fill="none" stroke="white" d="M628.856,-235.606C591.497,-224.664 539.89,-209.549 499.909,-197.84"/>
<polygon fill="white" stroke="white" points="500.852,-194.469 490.271,-195.017 498.885,-201.187 500.852,-194.469"/>
</g>
<!-- com.android.systemui&#45;&gt;/system/bin/surfaceflinger -->
<g id="edge15" class="edge"><title>com.android.systemui&#45;&gt;/system/bin/surfaceflinger</title>
<path fill="none" stroke="cyan" d="M523.489,-448.817C512.327,-409.509 493.08,-310.458 461,-233 457.207,-223.841 452.078,-214.342 447.517,-205.959"/>
<polygon fill="cyan" stroke="cyan" points="450.537,-204.185 442.709,-197.045 444.376,-207.508 450.537,-204.185"/>
</g>
<!-- com.android.systemui&#45;&gt;/system/bin/surfaceflinger -->
<g id="edge18" class="edge"><title>com.android.systemui&#45;&gt;/system/bin/surfaceflinger</title>
<path fill="none" stroke="white" d="M532.842,-448.817C530.327,-409.509 511.08,-310.458 479,-233 475.125,-223.644 469.857,-213.933 464.304,-205.419"/>
<polygon fill="white" stroke="white" points="467.053,-203.243 458.459,-197.045 461.312,-207.249 467.053,-203.243"/>
</g>
<!-- com.android.systemui&#45;&gt;system_server -->
<g id="edge19" class="edge"><title>com.android.systemui&#45;&gt;system_server</title>
<path fill="none" stroke="cyan" d="M507.494,-449.292C490.928,-439.246 468.461,-426.403 449.018,-415.842"/>
<polygon fill="cyan" stroke="cyan" points="450.509,-412.67 440.044,-411.017 447.194,-418.835 450.509,-412.67"/>
</g>
<!-- com.android.systemui&#45;&gt;/system/bin/servicemanager -->
<g id="edge9" class="edge"><title>com.android.systemui&#45;&gt;/system/bin/servicemanager</title>
<path fill="none" stroke="cyan" d="M515.749,-484.945C508.125,-493.417 498.751,-503.832 490.334,-513.185"/>
<polygon fill="cyan" stroke="cyan" points="487.636,-510.95 483.548,-520.725 492.839,-515.633 487.636,-510.95"/>
</g>
<!-- com.android.launcher3&#45;&gt;/system/bin/surfaceflinger -->
<g id="edge42" class="edge"><title>com.android.launcher3&#45;&gt;/system/bin/surfaceflinger</title>
<path fill="none" stroke="cyan" d="M422.545,-125.303C423.3,-133.102 424.955,-142.491 427.05,-151.171"/>
<polygon fill="cyan" stroke="cyan" points="423.692,-152.158 429.684,-160.896 430.448,-150.328 423.692,-152.158"/>
</g>
<!-- com.android.launcher3&#45;&gt;/system/bin/surfaceflinger -->
<g id="edge45" class="edge"><title>com.android.launcher3&#45;&gt;/system/bin/surfaceflinger</title>
<path fill="none" stroke="white" d="M434.267,-124.945C436.627,-132.654 438.733,-141.973 440.132,-150.636"/>
<polygon fill="white" stroke="white" points="436.685,-151.266 441.458,-160.725 443.625,-150.354 436.685,-151.266"/>
</g>
<!-- com.android.inputmethod.latin&#45;&gt;system_server -->
<g id="edge26" class="edge"><title>com.android.inputmethod.latin&#45;&gt;system_server</title>
<path fill="none" stroke="white" d="M195.42,-268.99C177.797,-288.166 158.999,-319.485 176,-341 195.212,-365.313 273.581,-379.659 334.046,-387.167"/>
<polygon fill="white" stroke="white" points="333.999,-390.687 344.345,-388.402 334.833,-383.737 333.999,-390.687"/>
</g>
<!-- com.android.inputmethod.latin&#45;&gt;system_server -->
<g id="edge34" class="edge"><title>com.android.inputmethod.latin&#45;&gt;system_server</title>
<path fill="none" stroke="cyan" d="M208.423,-268.99C195.797,-288.166 176.999,-319.485 194,-341 211.942,-363.706 281.481,-377.719 336.544,-385.588"/>
<polygon fill="cyan" stroke="cyan" points="336.255,-389.082 346.641,-386.987 337.216,-382.148 336.255,-389.082"/>
</g>
<!-- com.android.contacts -->
<g id="node13" class="node"><title>com.android.contacts</title>
<ellipse fill="#006699" stroke="white" cx="289" cy="-323" rx="94.7833" ry="18"/>
<text text-anchor="middle" x="289" y="-319.3" font-family="Helvetica,sans-Serif" font-size="14.00" fill="white">com.android.contacts</text>
</g>
<!-- com.android.inputmethod.latin&#45;&gt;com.android.contacts -->
<g id="edge25" class="edge"><title>com.android.inputmethod.latin&#45;&gt;com.android.contacts</title>
<path fill="none" stroke="white" d="M234.429,-268.945C243.45,-277.715 254.613,-288.568 264.488,-298.169"/>
<polygon fill="white" stroke="white" points="262.122,-300.75 271.731,-305.211 267.001,-295.731 262.122,-300.75"/>
</g>
<!-- com.android.contacts&#45;&gt;/system/bin/surfaceflinger -->
<g id="edge27" class="edge"><title>com.android.contacts&#45;&gt;/system/bin/surfaceflinger</title>
<path fill="none" stroke="white" d="M311.329,-305.304C324.42,-295.216 341.07,-281.859 355,-269 377.203,-248.504 400.661,-223.313 417.128,-204.969"/>
<polygon fill="white" stroke="white" points="420.132,-206.859 424.172,-197.064 414.906,-202.202 420.132,-206.859"/>
</g>
<!-- com.android.contacts&#45;&gt;system_server -->
<g id="edge28" class="edge"><title>com.android.contacts&#45;&gt;system_server</title>
<path fill="none" stroke="white" d="M316.6,-340.235C333.205,-350.003 354.516,-362.539 372.382,-373.048"/>
<polygon fill="white" stroke="white" points="370.974,-376.281 381.368,-378.334 374.523,-370.247 370.974,-376.281"/>
</g>
<!-- com.android.messaging&#45;&gt;com.android.phone -->
<g id="edge29" class="edge"><title>com.android.messaging&#45;&gt;com.android.phone</title>
<path fill="none" stroke="cyan" d="M1349,-197.034C1349,-244.709 1349,-379.815 1349,-438.37"/>
<polygon fill="cyan" stroke="cyan" points="1345.5,-438.694 1349,-448.694 1352.5,-438.694 1345.5,-438.694"/>
</g>
<!-- /system/bin/mediaserver -->
<g id="node16" class="node"><title>/system/bin/mediaserver</title>
<ellipse fill="#006699" stroke="white" cx="1741" cy="-35" rx="106.681" ry="18"/>
<text text-anchor="middle" x="1741" y="-31.3" font-family="Helvetica,sans-Serif" font-size="14.00" fill="white">/system/bin/mediaserver</text>
</g>
<!-- org.chromium.webview_shell -->
<g id="node17" class="node"><title>org.chromium.webview_shell</title>
<ellipse fill="#006699" stroke="white" cx="1634" cy="-107" rx="124.278" ry="18"/>
<text text-anchor="middle" x="1634" y="-103.3" font-family="Helvetica,sans-Serif" font-size="14.00" fill="white">org.chromium.webview_shell</text>
</g>
<!-- /system/bin/mediaserver&#45;&gt;org.chromium.webview_shell -->
<g id="edge33" class="edge"><title>/system/bin/mediaserver&#45;&gt;org.chromium.webview_shell</title>
<path fill="none" stroke="white" stroke-dasharray="1,5" d="M1715.64,-52.589C1701.49,-61.8493 1683.66,-73.5133 1668.27,-83.5772"/>
<polygon fill="white" stroke="white" points="1659.55,-89.2875 1665.45,-80.0471 1663.73,-86.5501 1667.91,-83.8128 1667.91,-83.8128 1667.91,-83.8128 1663.73,-86.5501 1670.38,-87.5786 1659.55,-89.2875 1659.55,-89.2875"/>
</g>
<!-- media.extractor -->
<g id="node19" class="node"><title>media.extractor</title>
<ellipse fill="#006699" stroke="white" cx="1848" cy="-107" rx="71.4873" ry="18"/>
<text text-anchor="middle" x="1848" y="-103.3" font-family="Helvetica,sans-Serif" font-size="14.00" fill="white">media.extractor</text>
</g>
<!-- /system/bin/mediaserver&#45;&gt;media.extractor -->
<g id="edge39" class="edge"><title>/system/bin/mediaserver&#45;&gt;media.extractor</title>
<path fill="none" stroke="white" stroke-dasharray="1,5" d="M1766.36,-52.589C1780.96,-62.1405 1799.47,-74.2493 1815.17,-84.5218"/>
<polygon fill="white" stroke="white" points="1823.56,-90.0119 1812.73,-88.303 1819.38,-87.2746 1815.19,-84.5372 1815.19,-84.5372 1815.19,-84.5372 1819.38,-87.2746 1817.66,-80.7715 1823.56,-90.0119 1823.56,-90.0119"/>
</g>
<!-- com.android.deskclock&#45;&gt;/system/bin/surfaceflinger -->
<g id="edge37" class="edge"><title>com.android.deskclock&#45;&gt;/system/bin/surfaceflinger</title>
<path fill="none" stroke="cyan" d="M218.085,-122.589C260.681,-133.924 321.704,-149.648 368.861,-161.451"/>
<polygon fill="cyan" stroke="cyan" points="368.152,-164.882 378.702,-163.908 369.847,-158.09 368.152,-164.882"/>
</g>
<!-- com.android.deskclock&#45;&gt;/system/bin/surfaceflinger -->
<g id="edge38" class="edge"><title>com.android.deskclock&#45;&gt;/system/bin/surfaceflinger</title>
<path fill="none" stroke="white" d="M225.571,-121.663C270.159,-132.746 331.316,-148.445 376.774,-160.457"/>
<polygon fill="white" stroke="white" points="375.952,-163.86 386.515,-163.039 377.745,-157.094 375.952,-163.86"/>
</g>
<!-- com.android.deskclock&#45;&gt;system_server -->
<g id="edge35" class="edge"><title>com.android.deskclock&#45;&gt;system_server</title>
<path fill="none" stroke="white" d="M146.003,-124.706C112.231,-153.716 52.2182,-215.436 79,-269 124.118,-359.236 247.897,-385.071 330.1,-392.042"/>
<polygon fill="white" stroke="white" points="329.92,-395.538 340.16,-392.819 330.46,-388.559 329.92,-395.538"/>
</g>
</g>
</svg>
