<?xml version="1.0" encoding="UTF-8" standalone="no"?>
<!DOCTYPE svg PUBLIC "-//W3C//DTD SVG 1.1//EN"
 "http://www.w3.org/Graphics/SVG/1.1/DTD/svg11.dtd">
<!-- Generated by graphviz version 2.40.1 (20161225.0304)
 -->
<!-- Title: %3 Pages: 1 -->
<svg width="122pt" height="276pt"
 viewBox="0.00 0.00 122.48 276.00" xmlns="http://www.w3.org/2000/svg" xmlns:xlink="http://www.w3.org/1999/xlink">
<g id="graph0" class="graph" transform="scale(1 1) rotate(0) translate(4 272)">
<title>%3</title>
<polygon fill="#333333" stroke="transparent" points="-4,4 -4,-272 118.4785,-272 118.4785,4 -4,4"/>
<text text-anchor="middle" x="57.2392" y="-5.6" font-family="Times,serif" font-size="8.00" fill="#ffffff">Binder Call Graph</text>
<!-- 0 -->
<g id="node1" class="node">
<title>0</title>
<ellipse fill="#006699" stroke="#ffffff" cx="65.6984" cy="-34" rx="27" ry="18"/>
<text text-anchor="middle" x="65.6984" y="-29.8" font-family="Helvetica,sans-Serif" font-size="14.00" fill="#ffffff">0</text>
</g>
<!-- 10429 -->
<g id="node2" class="node">
<title>10429</title>
<ellipse fill="#006699" stroke="#ffffff" cx="34.6984" cy="-106" rx="34.8979" ry="18"/>
<text text-anchor="middle" x="34.6984" y="-101.8" font-family="Helvetica,sans-Serif" font-size="14.00" fill="#ffffff">10429</text>
</g>
<!-- 0&#45;&gt;10429 -->
<g id="edge1" class="edge">
<title>0&#45;&gt;10429</title>
<path fill="none" stroke="#00ffff" stroke-dasharray="1,5" d="M53.0985,-49.9791C48.5672,-58.2812 43.8057,-68.6661 40.0635,-78.2317"/>
<polygon fill="#00ffff" stroke="#00ffff" points="36.5851,-87.7819 35.7792,-76.8457 38.2963,-83.0839 40.0075,-78.3858 40.0075,-78.3858 40.0075,-78.3858 38.2963,-83.0839 44.2358,-79.9259 36.5851,-87.7819 36.5851,-87.7819"/>
</g>
<!-- 0&#45;&gt;10429 -->
<g id="edge6" class="edge">
<title>0&#45;&gt;10429</title>
<path fill="none" stroke="#00ffff" d="M63.8282,-52.1686C61.0268,-60.5786 56.846,-70.7254 52.4384,-79.932"/>
<polygon fill="#00ffff" stroke="#00ffff" points="49.2046,-78.5709 47.8114,-89.0737 55.4502,-81.732 49.2046,-78.5709"/>
</g>
<!-- 959 -->
<g id="node3" class="node">
<title>959</title>
<ellipse fill="#006699" stroke="#ffffff" cx="34.6984" cy="-178" rx="27" ry="18"/>
<text text-anchor="middle" x="34.6984" y="-173.8" font-family="Helvetica,sans-Serif" font-size="14.00" fill="#ffffff">959</text>
</g>
<!-- 0&#45;&gt;959 -->
<g id="edge8" class="edge">
<title>0&#45;&gt;959</title>
<path fill="none" stroke="#00ffff" d="M73.0143,-51.4043C79.6958,-69.8982 87.325,-99.756 78.6984,-124 74.4968,-135.8081 66.4855,-146.9059 58.438,-155.9332"/>
<polygon fill="#00ffff" stroke="#00ffff" points="55.7938,-153.635 51.4514,-163.299 60.8726,-158.4523 55.7938,-153.635"/>
</g>
<!-- 1823 -->
<g id="node4" class="node">
<title>1823</title>
<ellipse fill="#006699" stroke="#ffffff" cx="84.6984" cy="-250" rx="29.5618" ry="18"/>
<text text-anchor="middle" x="84.6984" y="-245.8" font-family="Helvetica,sans-Serif" font-size="14.00" fill="#ffffff">1823</text>
</g>
<!-- 0&#45;&gt;1823 -->
<g id="edge9" class="edge">
<title>0&#45;&gt;1823</title>
<path fill="none" stroke="#00ffff" d="M77.4062,-50.6173C83.8983,-60.8685 91.3239,-74.5841 94.6984,-88 106.2466,-133.912 98.3301,-189.3358 91.5236,-222.0121"/>
<polygon fill="#00ffff" stroke="#00ffff" points="88.0182,-221.6564 89.2875,-232.1749 94.8547,-223.1606 88.0182,-221.6564"/>
</g>
<!-- 10429&#45;&gt;959 -->
<g id="edge2" class="edge">
<title>10429&#45;&gt;959</title>
<path fill="none" stroke="#ffffff" d="M17.5383,-121.9791C14.3156,-131.3007 13.6138,-143.2482 15.4329,-153.7135"/>
<polygon fill="#ffffff" stroke="#ffffff" points="12.0997,-154.7953 18.0922,-163.5326 18.8563,-152.9653 12.0997,-154.7953"/>
</g>
<!-- 10429&#45;&gt;959 -->
<g id="edge3" class="edge">
<title>10429&#45;&gt;959</title>
<path fill="none" stroke="#00ffff" d="M28.7827,-123.7978C27.9782,-131.8193 27.7555,-141.4769 28.1146,-150.4043"/>
<polygon fill="#00ffff" stroke="#00ffff" points="24.6246,-150.6711 28.8034,-160.407 31.6081,-150.1901 24.6246,-150.6711"/>
</g>
<!-- 959&#45;&gt;10429 -->
<g id="edge4" class="edge">
<title>959&#45;&gt;10429</title>
<path fill="none" stroke="#ffffff" d="M40.5934,-160.407C41.4078,-152.4135 41.6404,-142.7637 41.2912,-133.8241"/>
<polygon fill="#ffffff" stroke="#ffffff" points="44.7801,-133.5392 40.6141,-123.7978 37.796,-134.0109 44.7801,-133.5392"/>
</g>
<!-- 959&#45;&gt;10429 -->
<g id="edge5" class="edge">
<title>959&#45;&gt;10429</title>
<path fill="none" stroke="#ffffff" stroke-dasharray="1,5" d="M51.3046,-163.5326C54.8042,-154.5119 55.783,-142.6396 54.2409,-132.0239"/>
<polygon fill="#ffffff" stroke="#ffffff" points="51.8585,-121.9791 58.5448,-130.6707 53.0124,-126.8442 54.1663,-131.7092 54.1663,-131.7092 54.1663,-131.7092 53.0124,-126.8442 49.7878,-132.7477 51.8585,-121.9791 51.8585,-121.9791"/>
</g>
<!-- 959&#45;&gt;1823 -->
<g id="edge7" class="edge">
<title>959&#45;&gt;1823</title>
<path fill="none" stroke="#ffffff" d="M46.0442,-194.3379C52.2839,-203.3232 60.1607,-214.6657 67.1733,-224.7638"/>
<polygon fill="#ffffff" stroke="#ffffff" points="64.4717,-227.0098 73.0505,-233.2271 70.2213,-223.017 64.4717,-227.0098"/>
</g>
</g>
</svg>
