<?xml version="1.0" encoding="UTF-8" standalone="no"?>
<!DOCTYPE svg PUBLIC "-//W3C//DTD SVG 1.1//EN"
 "http://www.w3.org/Graphics/SVG/1.1/DTD/svg11.dtd">
<!-- Generated by graphviz version 2.40.1 (20161225.0304)
 -->
<!-- Title: %3 Pages: 1 -->
<svg width="1705pt" height="493pt"
 viewBox="0.00 0.00 1705.23 493.00" xmlns="http://www.w3.org/2000/svg" xmlns:xlink="http://www.w3.org/1999/xlink">
<g id="graph0" class="graph" transform="scale(1 1) rotate(0) translate(4 489)">
<title>%3</title>
<polygon fill="#333333" stroke="transparent" points="-4,4 -4,-489 1701.2266,-489 1701.2266,4 -4,4"/>
<text text-anchor="middle" x="848.6133" y="-6.6" font-family="Times,serif" font-size="8.00" fill="#ffffff">Binder Call Graph</text>
<!-- com.android.launcher3 -->
<g id="node1" class="node">
<title>com.android.launcher3</title>
<ellipse fill="#006699" stroke="#ffffff" cx="1138.5404" cy="-107" rx="118.0794" ry="18"/>
<text text-anchor="middle" x="1138.5404" y="-103.3" font-family="Helvetica,sans-Serif" font-size="14.00" fill="#ffffff">com.android.launcher3</text>
</g>
<!-- /system/bin/surfaceflinger -->
<g id="node2" class="node">
<title>/system/bin/surfaceflinger</title>
<ellipse fill="#006699" stroke="#ffffff" cx="1178.5404" cy="-179" rx="131.8766" ry="18"/>
<text text-anchor="middle" x="1178.5404" y="-175.3" font-family="Helvetica,sans-Serif" font-size="14.00" fill="#ffffff">/system/bin/surfaceflinger</text>
</g>
<!-- com.android.launcher3&#45;&gt;/system/bin/surfaceflinger -->
<g id="edge1" class="edge">
<title>com.android.launcher3&#45;&gt;/system/bin/surfaceflinger</title>
<path fill="none" stroke="#00ffff" d="M1142.6817,-125.1686C1146.4603,-133.4171 1151.7748,-143.3365 1157.2219,-152.4008"/>
<polygon fill="#00ffff" stroke="#00ffff" points="1154.3873,-154.4689 1162.6612,-161.0866 1160.32,-150.7536 1154.3873,-154.4689"/>
</g>
<!-- com.android.launcher3&#45;&gt;/system/bin/surfaceflinger -->
<g id="edge31" class="edge">
<title>com.android.launcher3&#45;&gt;/system/bin/surfaceflinger</title>
<path fill="none" stroke="#ffffff" d="M1154.5865,-125.1686C1159.7807,-133.1229 1165.2731,-142.631 1169.8053,-151.4277"/>
<polygon fill="#ffffff" stroke="#ffffff" points="1166.7478,-153.1426 1174.2868,-160.5867 1173.0355,-150.066 1166.7478,-153.1426"/>
</g>
<!-- system_server -->
<g id="node4" class="node">
<title>system_server</title>
<ellipse fill="#006699" stroke="#ffffff" cx="983.5404" cy="-323" rx="79.0865" ry="18"/>
<text text-anchor="middle" x="983.5404" y="-319.3" font-family="Helvetica,sans-Serif" font-size="14.00" fill="#ffffff">system_server</text>
</g>
<!-- com.android.launcher3&#45;&gt;system_server -->
<g id="edge30" class="edge">
<title>com.android.launcher3&#45;&gt;system_server</title>
<path fill="none" stroke="#00ffff" d="M1055.5324,-119.9319C990.1856,-134.9502 903.2496,-166.7514 860.5404,-233 851.8709,-246.4477 851.7914,-255.6039 860.5404,-269 872.7051,-287.626 892.8821,-299.8688 913.4114,-307.8993"/>
<polygon fill="#00ffff" stroke="#00ffff" points="912.2467,-311.1999 922.8411,-311.3004 914.6217,-304.6151 912.2467,-311.1999"/>
</g>
<!-- com.android.systemui -->
<g id="node3" class="node">
<title>com.android.systemui</title>
<ellipse fill="#006699" stroke="#ffffff" cx="983.5404" cy="-251" rx="114.2798" ry="18"/>
<text text-anchor="middle" x="983.5404" y="-247.3" font-family="Helvetica,sans-Serif" font-size="14.00" fill="#ffffff">com.android.systemui</text>
</g>
<!-- /system/bin/surfaceflinger&#45;&gt;com.android.systemui -->
<g id="edge37" class="edge">
<title>/system/bin/surfaceflinger&#45;&gt;com.android.systemui</title>
<path fill="none" stroke="#ffffff" stroke-dasharray="1,5" d="M1122.7702,-195.3379C1092.6211,-205.6186 1056.1293,-218.9853 1027.906,-230.0431"/>
<polygon fill="#ffffff" stroke="#ffffff" points="1018.2919,-233.8493 1025.9333,-225.9842 1022.9409,-232.0087 1027.5898,-230.1682 1027.5898,-230.1682 1027.5898,-230.1682 1022.9409,-232.0087 1029.2463,-234.3523 1018.2919,-233.8493 1018.2919,-233.8493"/>
</g>
<!-- /system/bin/surfaceflinger&#45;&gt;system_server -->
<g id="edge11" class="edge">
<title>/system/bin/surfaceflinger&#45;&gt;system_server</title>
<path fill="none" stroke="#ffffff" stroke-dasharray="1,5" d="M1148.5897,-196.6903C1128.6082,-216.549 1106.0437,-248.6475 1079.5404,-269 1061.7389,-282.6701 1039.9385,-293.6938 1021.0961,-302.1288"/>
<polygon fill="#ffffff" stroke="#ffffff" points="1011.8327,-306.1827 1019.1897,-298.051 1016.4133,-304.1781 1020.9939,-302.1735 1020.9939,-302.1735 1020.9939,-302.1735 1016.4133,-304.1781 1022.798,-306.296 1011.8327,-306.1827 1011.8327,-306.1827"/>
</g>
<!-- /system/bin/surfaceflinger&#45;&gt;system_server -->
<g id="edge12" class="edge">
<title>/system/bin/surfaceflinger&#45;&gt;system_server</title>
<path fill="none" stroke="#ffffff" d="M1187.5074,-197.0484C1182.3379,-216.933 1159.885,-248.7694 1133.5404,-269 1110.9713,-286.3313 1081.9742,-299.4087 1054.8802,-308.3502"/>
<polygon fill="#ffffff" stroke="#ffffff" points="1053.4891,-305.1186 1044.9998,-311.4575 1055.5892,-311.7962 1053.4891,-305.1186"/>
</g>
<!-- com.facebook.katana -->
<g id="node7" class="node">
<title>com.facebook.katana</title>
<ellipse fill="#006699" stroke="#ffffff" cx="1194.5404" cy="-467" rx="111.5806" ry="18"/>
<text text-anchor="middle" x="1194.5404" y="-463.3" font-family="Helvetica,sans-Serif" font-size="14.00" fill="#ffffff">com.facebook.katana</text>
</g>
<!-- /system/bin/surfaceflinger&#45;&gt;com.facebook.katana -->
<g id="edge34" class="edge">
<title>/system/bin/surfaceflinger&#45;&gt;com.facebook.katana</title>
<path fill="none" stroke="#ffffff" stroke-dasharray="1,5" d="M1176.0546,-197.0157C1174.6632,-245.7061 1181.8955,-380.2039 1188.7754,-438.9427"/>
<polygon fill="#ffffff" stroke="#ffffff" points="1190.0538,-448.9911 1184.3277,-439.639 1189.4227,-444.0311 1188.7917,-439.0711 1188.7917,-439.0711 1188.7917,-439.0711 1189.4227,-444.0311 1193.2557,-438.5031 1190.0538,-448.9911 1190.0538,-448.9911"/>
</g>
<!-- com.p3app2 -->
<g id="node8" class="node">
<title>com.p3app2</title>
<ellipse fill="#006699" stroke="#ffffff" cx="1300.5404" cy="-395" rx="68.7879" ry="18"/>
<text text-anchor="middle" x="1300.5404" y="-391.3" font-family="Helvetica,sans-Serif" font-size="14.00" fill="#ffffff">com.p3app2</text>
</g>
<!-- /system/bin/surfaceflinger&#45;&gt;com.p3app2 -->
<g id="edge16" class="edge">
<title>/system/bin/surfaceflinger&#45;&gt;com.p3app2</title>
<path fill="none" stroke="#ffffff" stroke-dasharray="1,5" d="M1185.8532,-197.0812C1197.1963,-206.2696 1212.3864,-218.5576 1222.5404,-233 1251.8668,-274.7122 1264.8446,-333.9928 1278.5015,-368.0729"/>
<polygon fill="#ffffff" stroke="#ffffff" points="1282.5821,-377.3875 1274.4476,-370.0336 1280.5757,-372.8077 1278.5694,-368.2279 1278.5694,-368.2279 1278.5694,-368.2279 1280.5757,-372.8077 1282.6912,-366.4222 1282.5821,-377.3875 1282.5821,-377.3875"/>
</g>
<!-- /system/bin/surfaceflinger&#45;&gt;com.p3app2 -->
<g id="edge25" class="edge">
<title>/system/bin/surfaceflinger&#45;&gt;com.p3app2</title>
<path fill="none" stroke="#ffffff" d="M1217.5292,-196.3623C1232.3934,-205.6244 1248.1192,-218.1776 1258.5404,-233 1287.462,-274.1365 1300.4833,-332.3598 1303.2929,-366.6475"/>
<polygon fill="#ffffff" stroke="#ffffff" points="1299.812,-367.0932 1303.8536,-376.8869 1306.8015,-366.7105 1299.812,-367.0932"/>
</g>
<!-- com.android.inputmethod.latin -->
<g id="node9" class="node">
<title>com.android.inputmethod.latin</title>
<ellipse fill="#006699" stroke="#ffffff" cx="1542.5404" cy="-395" rx="154.8728" ry="18"/>
<text text-anchor="middle" x="1542.5404" y="-391.3" font-family="Helvetica,sans-Serif" font-size="14.00" fill="#ffffff">com.android.inputmethod.latin</text>
</g>
<!-- /system/bin/surfaceflinger&#45;&gt;com.android.inputmethod.latin -->
<g id="edge23" class="edge">
<title>/system/bin/surfaceflinger&#45;&gt;com.android.inputmethod.latin</title>
<path fill="none" stroke="#ffffff" stroke-dasharray="1,5" d="M1214.2457,-196.3994C1236.6263,-206.2332 1265.6614,-219.2829 1290.5404,-233 1369.9154,-276.7635 1456.9289,-338.4028 1505.2717,-371.6118"/>
<polygon fill="#ffffff" stroke="#ffffff" points="1513.5511,-377.276 1502.7568,-375.3436 1509.4244,-374.4528 1505.2977,-371.6296 1505.2977,-371.6296 1505.2977,-371.6296 1509.4244,-374.4528 1507.8386,-367.9155 1513.5511,-377.276 1513.5511,-377.276"/>
</g>
<!-- com.android.systemui&#45;&gt;/system/bin/surfaceflinger -->
<g id="edge14" class="edge">
<title>com.android.systemui&#45;&gt;/system/bin/surfaceflinger</title>
<path fill="none" stroke="#00ffff" d="M1028.4131,-234.4316C1056.5073,-224.0584 1092.9254,-210.6117 1122.8568,-199.5601"/>
<polygon fill="#00ffff" stroke="#00ffff" points="1124.1595,-202.8101 1132.3281,-196.063 1121.7348,-196.2435 1124.1595,-202.8101"/>
</g>
<!-- com.android.systemui&#45;&gt;/system/bin/surfaceflinger -->
<g id="edge35" class="edge">
<title>com.android.systemui&#45;&gt;/system/bin/surfaceflinger</title>
<path fill="none" stroke="#ffffff" d="M1038.0727,-235.0837C1068.3066,-224.7997 1105.1984,-211.3003 1133.7511,-200.1228"/>
<polygon fill="#ffffff" stroke="#ffffff" points="1135.0802,-203.361 1143.0928,-196.4292 1132.5064,-196.8514 1135.0802,-203.361"/>
</g>
<!-- com.android.systemui&#45;&gt;system_server -->
<g id="edge2" class="edge">
<title>com.android.systemui&#45;&gt;system_server</title>
<path fill="none" stroke="#ffffff" d="M971.6356,-269.1686C970.1116,-276.9875 969.6796,-286.3077 970.3394,-294.9779"/>
<polygon fill="#ffffff" stroke="#ffffff" points="966.8961,-295.6362 971.6858,-305.0866 973.8348,-294.712 966.8961,-295.6362"/>
</g>
<!-- com.android.systemui&#45;&gt;system_server -->
<g id="edge6" class="edge">
<title>com.android.systemui&#45;&gt;system_server</title>
<path fill="none" stroke="#00ffff" d="M995.4452,-269.1686C996.9691,-276.9875 997.4011,-286.3077 996.7413,-294.9779"/>
<polygon fill="#00ffff" stroke="#00ffff" points="993.2459,-294.712 995.3949,-305.0866 1000.1846,-295.6362 993.2459,-294.712"/>
</g>
<!-- system_server&#45;&gt;/system/bin/surfaceflinger -->
<g id="edge4" class="edge">
<title>system_server&#45;&gt;/system/bin/surfaceflinger</title>
<path fill="none" stroke="#ffffff" d="M1024.7973,-307.567C1047.6399,-298.6516 1075.6216,-285.8319 1097.5404,-269 1120.489,-251.3773 1140.4846,-224.9479 1155.1632,-205.2835"/>
<polygon fill="#ffffff" stroke="#ffffff" points="1158.1359,-207.1526 1161.3228,-197.0484 1152.5304,-202.9598 1158.1359,-207.1526"/>
</g>
<!-- system_server&#45;&gt;/system/bin/surfaceflinger -->
<g id="edge5" class="edge">
<title>system_server&#45;&gt;/system/bin/surfaceflinger</title>
<path fill="none" stroke="#00ffff" d="M1035.7676,-309.4253C1061.5944,-300.4701 1092.0494,-287.0392 1115.5404,-269 1138.1803,-251.6143 1157.946,-225.6574 1169.4532,-206.0807"/>
<polygon fill="#00ffff" stroke="#00ffff" points="1172.6678,-207.4982 1174.4151,-197.0484 1166.5326,-204.1277 1172.6678,-207.4982"/>
</g>
<!-- system_server&#45;&gt;com.android.systemui -->
<g id="edge3" class="edge">
<title>system_server&#45;&gt;com.android.systemui</title>
<path fill="none" stroke="#ffffff" d="M983.5404,-304.5867C983.5404,-296.9407 983.5404,-287.8916 983.5404,-279.4274"/>
<polygon fill="#ffffff" stroke="#ffffff" points="987.0405,-279.1686 983.5404,-269.1686 980.0405,-279.1687 987.0405,-279.1686"/>
</g>
<!-- /system/bin/servicemanager -->
<g id="node6" class="node">
<title>/system/bin/servicemanager</title>
<ellipse fill="#006699" stroke="#ffffff" cx="1014.5404" cy="-395" rx="142.9746" ry="18"/>
<text text-anchor="middle" x="1014.5404" y="-391.3" font-family="Helvetica,sans-Serif" font-size="14.00" fill="#ffffff">/system/bin/servicemanager</text>
</g>
<!-- system_server&#45;&gt;/system/bin/servicemanager -->
<g id="edge10" class="edge">
<title>system_server&#45;&gt;/system/bin/servicemanager</title>
<path fill="none" stroke="#00ffff" d="M991.363,-341.1686C994.7513,-349.0383 998.7945,-358.4288 1002.548,-367.1467"/>
<polygon fill="#00ffff" stroke="#00ffff" points="999.4431,-368.786 1006.6124,-376.5867 1005.8725,-366.0178 999.4431,-368.786"/>
</g>
<!-- system_server&#45;&gt;com.p3app2 -->
<g id="edge19" class="edge">
<title>system_server&#45;&gt;com.p3app2</title>
<path fill="none" stroke="#ffffff" stroke-dasharray="1,5" d="M1037.0349,-336.3739C1092.0885,-349.291 1177.7357,-368.7437 1236.388,-381.652"/>
<polygon fill="#ffffff" stroke="#ffffff" points="1246.2851,-383.8241 1235.5529,-386.0758 1241.4013,-382.7522 1236.5176,-381.6804 1236.5176,-381.6804 1236.5176,-381.6804 1241.4013,-382.7522 1237.4822,-377.285 1246.2851,-383.8241 1246.2851,-383.8241"/>
</g>
<!-- system_server&#45;&gt;com.android.inputmethod.latin -->
<g id="edge20" class="edge">
<title>system_server&#45;&gt;com.android.inputmethod.latin</title>
<path fill="none" stroke="#ffffff" stroke-dasharray="1,5" d="M1052.6454,-331.9008C1146.5724,-343.9988 1315.7417,-365.788 1428.6007,-380.3244"/>
<polygon fill="#ffffff" stroke="#ffffff" points="1438.6618,-381.6203 1428.1689,-384.8059 1433.7028,-380.9815 1428.7438,-380.3427 1428.7438,-380.3427 1428.7438,-380.3427 1433.7028,-380.9815 1429.3186,-375.8796 1438.6618,-381.6203 1438.6618,-381.6203"/>
</g>
<!-- com.android.settings -->
<g id="node10" class="node">
<title>com.android.settings</title>
<ellipse fill="#006699" stroke="#ffffff" cx="108.5404" cy="-395" rx="108.5808" ry="18"/>
<text text-anchor="middle" x="108.5404" y="-391.3" font-family="Helvetica,sans-Serif" font-size="14.00" fill="#ffffff">com.android.settings</text>
</g>
<!-- system_server&#45;&gt;com.android.settings -->
<g id="edge29" class="edge">
<title>system_server&#45;&gt;com.android.settings</title>
<path fill="none" stroke="#ffffff" d="M905.708,-326.4901C768.3013,-333.1113 473.8578,-349.3607 226.5404,-377 216.6548,-378.1048 206.3279,-379.4281 196.0727,-380.8491"/>
<polygon fill="#ffffff" stroke="#ffffff" points="195.2695,-377.4279 185.8604,-382.2982 196.253,-384.3585 195.2695,-377.4279"/>
</g>
<!-- com.google.jannh.pointerleak -->
<g id="node11" class="node">
<title>com.google.jannh.pointerleak</title>
<ellipse fill="#006699" stroke="#ffffff" cx="384.5404" cy="-395" rx="149.4735" ry="18"/>
<text text-anchor="middle" x="384.5404" y="-391.3" font-family="Helvetica,sans-Serif" font-size="14.00" fill="#ffffff">com.google.jannh.pointerleak</text>
</g>
<!-- system_server&#45;&gt;com.google.jannh.pointerleak -->
<g id="edge33" class="edge">
<title>system_server&#45;&gt;com.google.jannh.pointerleak</title>
<path fill="none" stroke="#ffffff" d="M913.3608,-331.4356C811.8706,-343.6348 622.909,-366.348 500.5071,-381.0608"/>
<polygon fill="#ffffff" stroke="#ffffff" points="499.8561,-377.6137 490.3453,-382.2822 500.6915,-384.5637 499.8561,-377.6137"/>
</g>
<!-- /system/bin/audioserver -->
<g id="node12" class="node">
<title>/system/bin/audioserver</title>
<ellipse fill="#006699" stroke="#ffffff" cx="674.5404" cy="-395" rx="122.6784" ry="18"/>
<text text-anchor="middle" x="674.5404" y="-391.3" font-family="Helvetica,sans-Serif" font-size="14.00" fill="#ffffff">/system/bin/audioserver</text>
</g>
<!-- system_server&#45;&gt;/system/bin/audioserver -->
<g id="edge36" class="edge">
<title>system_server&#45;&gt;/system/bin/audioserver</title>
<path fill="none" stroke="#00ffff" d="M927.9405,-335.9553C878.2955,-347.5231 805.1472,-364.5673 750.1871,-377.3736"/>
<polygon fill="#00ffff" stroke="#00ffff" points="749.0911,-374.0351 740.1463,-379.7132 750.6797,-380.8525 749.0911,-374.0351"/>
</g>
<!-- unknown -->
<g id="node5" class="node">
<title>unknown</title>
<ellipse fill="#006699" stroke="#ffffff" cx="1138.5404" cy="-35" rx="53.0913" ry="18"/>
<text text-anchor="middle" x="1138.5404" y="-31.3" font-family="Helvetica,sans-Serif" font-size="14.00" fill="#ffffff">unknown</text>
</g>
<!-- unknown&#45;&gt;com.android.launcher3 -->
<g id="edge32" class="edge">
<title>unknown&#45;&gt;com.android.launcher3</title>
<path fill="none" stroke="#00ffff" stroke-dasharray="1,5" d="M1138.5404,-53.1686C1138.5404,-60.869 1138.5404,-70.0257 1138.5404,-78.5834"/>
<polygon fill="#00ffff" stroke="#00ffff" points="1138.5404,-88.5867 1134.0405,-78.5867 1138.5404,-83.5867 1138.5405,-78.5867 1138.5405,-78.5867 1138.5405,-78.5867 1138.5404,-83.5867 1143.0405,-78.5868 1138.5404,-88.5867 1138.5404,-88.5867"/>
</g>
<!-- unknown&#45;&gt;/system/bin/surfaceflinger -->
<g id="edge9" class="edge">
<title>unknown&#45;&gt;/system/bin/surfaceflinger</title>
<path fill="none" stroke="#00ffff" d="M1187.4235,-42.3271C1215.3753,-49.2955 1248.2251,-62.8222 1265.5404,-89 1274.3673,-102.3449 1273.3184,-111.0178 1265.5404,-125 1258.0259,-138.5084 1245.5791,-149.0702 1232.4175,-157.1286"/>
<polygon fill="#00ffff" stroke="#00ffff" points="1230.6807,-154.0898 1223.7098,-162.0685 1234.1347,-160.1784 1230.6807,-154.0898"/>
</g>
<!-- unknown&#45;&gt;com.android.systemui -->
<g id="edge27" class="edge">
<title>unknown&#45;&gt;com.android.systemui</title>
<path fill="none" stroke="#00ffff" stroke-dasharray="1,5" d="M1089.2454,-42.019C1059.3981,-49.0227 1023.3686,-62.7077 1002.5404,-89 971.943,-127.6243 969.88,-187.829 974.541,-222.9418"/>
<polygon fill="#00ffff" stroke="#00ffff" points="976.1792,-232.9816 970.1275,-223.8368 975.374,-228.0468 974.5687,-223.1121 974.5687,-223.1121 974.5687,-223.1121 975.374,-228.0468 979.01,-222.3874 976.1792,-232.9816 976.1792,-232.9816"/>
</g>
<!-- unknown&#45;&gt;com.android.systemui -->
<g id="edge28" class="edge">
<title>unknown&#45;&gt;com.android.systemui</title>
<path fill="none" stroke="#00ffff" d="M1093.8324,-44.9702C1068.6283,-52.6409 1038.7651,-65.9942 1020.5404,-89 989.943,-127.6243 987.88,-187.829 987.0205,-222.9418"/>
<polygon fill="#00ffff" stroke="#00ffff" points="983.5206,-222.8948 986.7621,-232.9816 990.5183,-223.075 983.5206,-222.8948"/>
</g>
<!-- unknown&#45;&gt;system_server -->
<g id="edge7" class="edge">
<title>unknown&#45;&gt;system_server</title>
<path fill="none" stroke="#00ffff" stroke-dasharray="1,5" d="M1093.6328,-44.9018C1018.0661,-65.4592 871.3188,-120.5281 841.5404,-233 837.4453,-248.4671 832.6046,-255.7278 841.5404,-269 855.9161,-290.3522 880.3425,-303.265 904.9601,-311.0726"/>
<polygon fill="#00ffff" stroke="#00ffff" points="914.7507,-313.9198 903.8918,-315.4483 909.9496,-312.5235 905.1485,-311.1273 905.1485,-311.1273 905.1485,-311.1273 909.9496,-312.5235 906.4051,-306.8063 914.7507,-313.9198 914.7507,-313.9198"/>
</g>
<!-- unknown&#45;&gt;system_server -->
<g id="edge8" class="edge">
<title>unknown&#45;&gt;system_server</title>
<path fill="none" stroke="#00ffff" d="M1098.0273,-46.7564C1027.744,-68.6656 888.4647,-123.7542 859.5404,-233 855.4453,-248.4671 850.6046,-255.7278 859.5404,-269 872.153,-287.7334 892.5021,-299.9706 913.1308,-307.9634"/>
<polygon fill="#00ffff" stroke="#00ffff" points="912.0071,-311.2785 922.6017,-311.3451 914.361,-304.6862 912.0071,-311.2785"/>
</g>
<!-- unknown&#45;&gt;com.p3app2 -->
<g id="edge18" class="edge">
<title>unknown&#45;&gt;com.p3app2</title>
<path fill="none" stroke="#00ffff" d="M1186.127,-43.2058C1252.6907,-57.7241 1365.5404,-94.7599 1365.5404,-179 1365.5404,-179 1365.5404,-179 1365.5404,-251 1365.5404,-295.303 1339.6652,-341.0248 1320.566,-368.739"/>
<polygon fill="#00ffff" stroke="#00ffff" points="1317.5795,-366.8995 1314.6444,-377.0797 1323.2873,-370.9518 1317.5795,-366.8995"/>
</g>
<!-- unknown&#45;&gt;com.android.inputmethod.latin -->
<g id="edge21" class="edge">
<title>unknown&#45;&gt;com.android.inputmethod.latin</title>
<path fill="none" stroke="#00ffff" stroke-dasharray="1,5" d="M1185.9496,-43.2887C1287.13,-61.4463 1514.5404,-108.797 1514.5404,-179 1514.5404,-179 1514.5404,-179 1514.5404,-251 1514.5404,-291.6501 1522.0743,-338.2046 1529.9011,-367.1089"/>
<polygon fill="#00ffff" stroke="#00ffff" points="1532.7845,-376.9156 1525.6464,-368.5911 1531.3741,-372.1187 1529.9636,-367.3217 1529.9636,-367.3217 1529.9636,-367.3217 1531.3741,-372.1187 1534.2809,-366.0523 1532.7845,-376.9156 1532.7845,-376.9156"/>
</g>
<!-- unknown&#45;&gt;com.android.inputmethod.latin -->
<g id="edge22" class="edge">
<title>unknown&#45;&gt;com.android.inputmethod.latin</title>
<path fill="none" stroke="#00ffff" d="M1188.0694,-42.0247C1294.017,-59.1733 1532.5404,-107.1022 1532.5404,-179 1532.5404,-179 1532.5404,-179 1532.5404,-251 1532.5404,-291.4718 1540.0083,-337.7963 1543.3626,-366.7275"/>
<polygon fill="#00ffff" stroke="#00ffff" points="1539.9065,-367.3315 1544.4226,-376.9156 1546.8689,-366.6071 1539.9065,-367.3315"/>
</g>
<!-- com.facebook.katana&#45;&gt;/system/bin/surfaceflinger -->
<g id="edge38" class="edge">
<title>com.facebook.katana&#45;&gt;/system/bin/surfaceflinger</title>
<path fill="none" stroke="#00ffff" d="M1197.026,-448.9911C1198.4181,-400.3088 1191.1862,-265.8114 1184.3063,-207.0655"/>
<polygon fill="#00ffff" stroke="#00ffff" points="1187.7619,-206.4941 1183.0279,-197.0157 1180.8178,-207.3774 1187.7619,-206.4941"/>
</g>
<!-- com.facebook.katana&#45;&gt;system_server -->
<g id="edge13" class="edge">
<title>com.facebook.katana&#45;&gt;system_server</title>
<path fill="none" stroke="#00ffff" d="M1096.5362,-458.2019C1001.3446,-448.3223 869.0755,-431.2661 853.5404,-413 843.1745,-400.8119 844.832,-390.4226 853.5404,-377 866.1918,-357.4997 887.7076,-344.9804 909.6723,-336.9691"/>
<polygon fill="#00ffff" stroke="#00ffff" points="911.056,-340.1968 919.4257,-333.7007 908.8318,-333.5595 911.056,-340.1968"/>
</g>
<!-- com.facebook.katana&#45;&gt;system_server -->
<g id="edge40" class="edge">
<title>com.facebook.katana&#45;&gt;system_server</title>
<path fill="none" stroke="#ffffff" d="M1100.5623,-457.1855C1010.6173,-447.1787 886.5553,-430.6545 871.5404,-413 861.1745,-400.8119 862.832,-390.4226 871.5404,-377 882.7332,-359.748 900.864,-347.96 919.3392,-339.9237"/>
<polygon fill="#ffffff" stroke="#ffffff" points="920.7261,-343.1385 928.701,-336.1635 918.117,-336.6429 920.7261,-343.1385"/>
</g>
<!-- com.p3app2&#45;&gt;/system/bin/surfaceflinger -->
<g id="edge17" class="edge">
<title>com.p3app2&#45;&gt;/system/bin/surfaceflinger</title>
<path fill="none" stroke="#ffffff" d="M1293.0969,-376.8869C1285.1155,-345.1623 1272.5921,-278.5885 1240.5404,-233 1232.378,-221.3903 1220.9612,-211.1727 1210.0788,-202.8383"/>
<polygon fill="#ffffff" stroke="#ffffff" points="1212.0533,-199.9458 1201.9239,-196.8401 1207.9057,-205.5848 1212.0533,-199.9458"/>
</g>
<!-- com.p3app2&#45;&gt;/system/bin/surfaceflinger -->
<g id="edge26" class="edge">
<title>com.p3app2&#45;&gt;/system/bin/surfaceflinger</title>
<path fill="none" stroke="#00ffff" d="M1314.5582,-377.1379C1321.1816,-345.5147 1308.6769,-278.7091 1276.5404,-233 1267.6891,-220.4104 1255.0109,-209.4579 1241.2313,-200.7686"/>
<polygon fill="#00ffff" stroke="#00ffff" points="1242.9283,-197.7062 1232.5336,-195.6563 1239.3812,-203.741 1242.9283,-197.7062"/>
</g>
<!-- com.p3app2&#45;&gt;system_server -->
<g id="edge15" class="edge">
<title>com.p3app2&#45;&gt;system_server</title>
<path fill="none" stroke="#00ffff" d="M1250.8321,-382.5155C1197.3679,-369.9413 1112.1356,-350.5626 1052.2828,-337.3594"/>
<polygon fill="#00ffff" stroke="#00ffff" points="1052.6795,-333.863 1042.161,-335.1324 1051.1754,-340.6995 1052.6795,-333.863"/>
</g>
<!-- com.android.inputmethod.latin&#45;&gt;/system/bin/surfaceflinger -->
<g id="edge24" class="edge">
<title>com.android.inputmethod.latin&#45;&gt;/system/bin/surfaceflinger</title>
<path fill="none" stroke="#00ffff" d="M1523.9416,-377.0267C1484.916,-345.5184 1392.4592,-279.2687 1308.5404,-233 1286.2424,-220.706 1260.606,-208.9481 1237.9591,-199.561"/>
<polygon fill="#00ffff" stroke="#00ffff" points="1239.0363,-196.2206 1228.4548,-195.6885 1236.3949,-202.7031 1239.0363,-196.2206"/>
</g>
<!-- com.android.inputmethod.latin&#45;&gt;com.facebook.katana -->
<g id="edge39" class="edge">
<title>com.android.inputmethod.latin&#45;&gt;com.facebook.katana</title>
<path fill="none" stroke="#ffffff" d="M1466.6003,-410.7117C1409.317,-422.5635 1330.9807,-438.771 1273.0746,-450.7515"/>
<polygon fill="#ffffff" stroke="#ffffff" points="1272.3214,-447.3332 1263.238,-452.7867 1273.7397,-454.188 1272.3214,-447.3332"/>
</g>
</g>
</svg>
