<?xml version="1.0" encoding="UTF-8" standalone="no"?>
<!DOCTYPE svg PUBLIC "-//W3C//DTD SVG 1.1//EN"
 "http://www.w3.org/Graphics/SVG/1.1/DTD/svg11.dtd">
<!-- Generated by graphviz version 2.40.1 (20161225.0304)
 -->
<!-- Title: %3 Pages: 1 -->
<svg width="1651pt" height="277pt"
 viewBox="0.00 0.00 1651.04 277.00" xmlns="http://www.w3.org/2000/svg" xmlns:xlink="http://www.w3.org/1999/xlink">
<g id="graph0" class="graph" transform="scale(1 1) rotate(0) translate(4 273)">
<title>%3</title>
<polygon fill="#333333" stroke="transparent" points="-4,4 -4,-273 1647.0425,-273 1647.0425,4 -4,4"/>
<text text-anchor="middle" x="821.5213" y="-6.6" font-family="Times,serif" font-size="8.00" fill="#ffffff">Binder Call Graph</text>
<!-- system_server -->
<g id="node1" class="node">
<title>system_server</title>
<ellipse fill="#006699" stroke="#ffffff" cx="793.5404" cy="-107" rx="79.0865" ry="18"/>
<text text-anchor="middle" x="793.5404" y="-103.3" font-family="Helvetica,sans-Serif" font-size="14.00" fill="#ffffff">system_server</text>
</g>
<!-- /system/bin/surfaceflinger -->
<g id="node2" class="node">
<title>/system/bin/surfaceflinger</title>
<ellipse fill="#006699" stroke="#ffffff" cx="793.5404" cy="-179" rx="131.8766" ry="18"/>
<text text-anchor="middle" x="793.5404" y="-175.3" font-family="Helvetica,sans-Serif" font-size="14.00" fill="#ffffff">/system/bin/surfaceflinger</text>
</g>
<!-- system_server&#45;&gt;/system/bin/surfaceflinger -->
<g id="edge12" class="edge">
<title>system_server&#45;&gt;/system/bin/surfaceflinger</title>
<path fill="none" stroke="#00ffff" d="M775.7932,-124.7978C773.3979,-132.7594 772.7219,-142.3329 773.7652,-151.2043"/>
<polygon fill="#00ffff" stroke="#00ffff" points="770.3654,-152.0506 775.7797,-161.1575 777.2263,-150.6618 770.3654,-152.0506"/>
</g>
<!-- system_server&#45;&gt;/system/bin/surfaceflinger -->
<g id="edge29" class="edge">
<title>system_server&#45;&gt;/system/bin/surfaceflinger</title>
<path fill="none" stroke="#ffffff" d="M811.2875,-124.7978C813.6829,-132.7594 814.3589,-142.3329 813.3155,-151.2043"/>
<polygon fill="#ffffff" stroke="#ffffff" points="809.8544,-150.6618 811.301,-161.1575 816.7153,-152.0506 809.8544,-150.6618"/>
</g>
<!-- com.android.systemui -->
<g id="node5" class="node">
<title>com.android.systemui</title>
<ellipse fill="#006699" stroke="#ffffff" cx="695.5404" cy="-251" rx="114.2798" ry="18"/>
<text text-anchor="middle" x="695.5404" y="-247.3" font-family="Helvetica,sans-Serif" font-size="14.00" fill="#ffffff">com.android.systemui</text>
</g>
<!-- system_server&#45;&gt;com.android.systemui -->
<g id="edge6" class="edge">
<title>system_server&#45;&gt;com.android.systemui</title>
<path fill="none" stroke="#ffffff" d="M726.7299,-116.7969C680.5318,-126.948 628.4248,-143.7223 616.5404,-161 601.9039,-182.2785 618.9155,-209.3102 642.7859,-228.1697"/>
<polygon fill="#ffffff" stroke="#ffffff" points="640.9645,-231.1731 651.1082,-234.2321 645.0862,-225.5151 640.9645,-231.1731"/>
</g>
<!-- system_server&#45;&gt;com.android.systemui -->
<g id="edge27" class="edge">
<title>system_server&#45;&gt;com.android.systemui</title>
<path fill="none" stroke="#00ffff" d="M740.8354,-120.4657C705.3168,-130.7286 663.0878,-145.6661 652.5404,-161 638.5434,-181.3489 653.4895,-206.9592 669.4733,-225.6522"/>
<polygon fill="#00ffff" stroke="#00ffff" points="667.0013,-228.1369 676.3056,-233.2045 672.1923,-223.4407 667.0013,-228.1369"/>
</g>
<!-- system_server&#45;&gt;com.android.systemui -->
<g id="edge37" class="edge">
<title>system_server&#45;&gt;com.android.systemui</title>
<path fill="none" stroke="#ffffff" stroke-dasharray="1,5" d="M762.0032,-123.5159C733.5737,-133.5724 698.085,-147.1239 688.5404,-161 675.0019,-180.6824 688.5414,-205.2871 698.2734,-223.7935"/>
<polygon fill="#ffffff" stroke="#ffffff" points="702.8519,-232.8568 694.3263,-225.9602 700.5974,-228.394 698.3429,-223.9311 698.3429,-223.9311 698.3429,-223.9311 700.5974,-228.394 702.3595,-221.902 702.8519,-232.8568 702.8519,-232.8568"/>
</g>
<!-- com.android.email -->
<g id="node6" class="node">
<title>com.android.email</title>
<ellipse fill="#006699" stroke="#ffffff" cx="1262.5404" cy="-179" rx="98.2828" ry="18"/>
<text text-anchor="middle" x="1262.5404" y="-175.3" font-family="Helvetica,sans-Serif" font-size="14.00" fill="#ffffff">com.android.email</text>
</g>
<!-- system_server&#45;&gt;com.android.email -->
<g id="edge19" class="edge">
<title>system_server&#45;&gt;com.android.email</title>
<path fill="none" stroke="#ffffff" stroke-dasharray="1,5" d="M856.1399,-118.0609C925.1178,-128.7255 1038.4253,-145.4866 1136.5404,-161 1148.1283,-162.8322 1160.4062,-164.8272 1172.62,-166.8"/>
<polygon fill="#ffffff" stroke="#ffffff" points="1182.848,-168.4479 1172.2595,-171.2999 1177.9117,-167.6525 1172.9753,-166.8572 1172.9753,-166.8572 1172.9753,-166.8572 1177.9117,-167.6525 1173.6911,-162.4145 1182.848,-168.4479 1182.848,-168.4479"/>
</g>
<!-- com.android.phone -->
<g id="node7" class="node">
<title>com.android.phone</title>
<ellipse fill="#006699" stroke="#ffffff" cx="1044.5404" cy="-179" rx="101.2821" ry="18"/>
<text text-anchor="middle" x="1044.5404" y="-175.3" font-family="Helvetica,sans-Serif" font-size="14.00" fill="#ffffff">com.android.phone</text>
</g>
<!-- system_server&#45;&gt;com.android.phone -->
<g id="edge5" class="edge">
<title>system_server&#45;&gt;com.android.phone</title>
<path fill="none" stroke="#ffffff" d="M842.8304,-121.139C882.4336,-132.4992 938.3317,-148.5338 981.2435,-160.8431"/>
<polygon fill="#ffffff" stroke="#ffffff" points="980.4436,-164.2548 991.0211,-163.6478 982.3738,-157.5261 980.4436,-164.2548"/>
</g>
<!-- com.android.settings -->
<g id="node8" class="node">
<title>com.android.settings</title>
<ellipse fill="#006699" stroke="#ffffff" cx="108.5404" cy="-179" rx="108.5808" ry="18"/>
<text text-anchor="middle" x="108.5404" y="-175.3" font-family="Helvetica,sans-Serif" font-size="14.00" fill="#ffffff">com.android.settings</text>
</g>
<!-- system_server&#45;&gt;com.android.settings -->
<g id="edge9" class="edge">
<title>system_server&#45;&gt;com.android.settings</title>
<path fill="none" stroke="#ffffff" stroke-dasharray="1,5" d="M718.1853,-112.8154C609.4208,-121.5181 402.2,-139.2551 226.5404,-161 216.8229,-162.2029 206.6727,-163.575 196.5806,-165.0128"/>
<polygon fill="#ffffff" stroke="#ffffff" points="186.526,-166.4687 195.7779,-160.582 191.4744,-165.7521 196.4228,-165.0356 196.4228,-165.0356 196.4228,-165.0356 191.4744,-165.7521 197.0677,-169.4891 186.526,-166.4687 186.526,-166.4687"/>
</g>
<!-- com.google.jannh.pointerleak -->
<g id="node13" class="node">
<title>com.google.jannh.pointerleak</title>
<ellipse fill="#006699" stroke="#ffffff" cx="384.5404" cy="-179" rx="149.4735" ry="18"/>
<text text-anchor="middle" x="384.5404" y="-175.3" font-family="Helvetica,sans-Serif" font-size="14.00" fill="#ffffff">com.google.jannh.pointerleak</text>
</g>
<!-- system_server&#45;&gt;com.google.jannh.pointerleak -->
<g id="edge28" class="edge">
<title>system_server&#45;&gt;com.google.jannh.pointerleak</title>
<path fill="none" stroke="#00ffff" stroke-dasharray="1,5" d="M730.5305,-118.0922C663.515,-129.8895 556.7377,-148.6865 479.5162,-162.2805"/>
<polygon fill="#00ffff" stroke="#00ffff" points="469.3,-164.079 478.3683,-157.9133 474.2243,-163.2121 479.1485,-162.3452 479.1485,-162.3452 479.1485,-162.3452 474.2243,-163.2121 479.9288,-166.777 469.3,-164.079 469.3,-164.079"/>
</g>
<!-- /system/bin/surfaceflinger&#45;&gt;system_server -->
<g id="edge25" class="edge">
<title>/system/bin/surfaceflinger&#45;&gt;system_server</title>
<path fill="none" stroke="#ffffff" stroke-dasharray="1,5" d="M787.5644,-160.5867C786.8333,-152.9407 786.6201,-143.8916 786.9249,-135.4274"/>
<polygon fill="#ffffff" stroke="#ffffff" points="787.588,-125.1686 791.4335,-135.4381 787.2654,-130.1582 786.9429,-135.1478 786.9429,-135.1478 786.9429,-135.1478 787.2654,-130.1582 782.4522,-134.8575 787.588,-125.1686 787.588,-125.1686"/>
</g>
<!-- /system/bin/surfaceflinger&#45;&gt;system_server -->
<g id="edge26" class="edge">
<title>/system/bin/surfaceflinger&#45;&gt;system_server</title>
<path fill="none" stroke="#00ffff" stroke-dasharray="1,5" d="M799.5164,-160.5867C800.2475,-152.9407 800.4606,-143.8916 800.1558,-135.4274"/>
<polygon fill="#00ffff" stroke="#00ffff" points="799.4928,-125.1686 804.6285,-134.8575 799.8153,-130.1582 800.1379,-135.1478 800.1379,-135.1478 800.1379,-135.1478 799.8153,-130.1582 795.6472,-135.4381 799.4928,-125.1686 799.4928,-125.1686"/>
</g>
<!-- /system/bin/surfaceflinger&#45;&gt;com.android.systemui -->
<g id="edge17" class="edge">
<title>/system/bin/surfaceflinger&#45;&gt;com.android.systemui</title>
<path fill="none" stroke="#00ffff" stroke-dasharray="1,5" d="M747.2819,-195.8808C731.2238,-204.8444 715.1351,-216.0359 703.7347,-225.9882"/>
<polygon fill="#00ffff" stroke="#00ffff" points="696.3295,-232.9664 700.5211,-222.8332 699.9684,-229.5373 703.6073,-226.1082 703.6073,-226.1082 703.6073,-226.1082 699.9684,-229.5373 706.6935,-229.3832 696.3295,-232.9664 696.3295,-232.9664"/>
</g>
<!-- /system/bin/surfaceflinger&#45;&gt;com.android.systemui -->
<g id="edge31" class="edge">
<title>/system/bin/surfaceflinger&#45;&gt;com.android.systemui</title>
<path fill="none" stroke="#ffffff" d="M769.3156,-196.7978C756.8299,-205.9709 741.4317,-217.2839 727.9384,-227.1974"/>
<polygon fill="#ffffff" stroke="#ffffff" points="725.8126,-224.4161 719.8261,-233.1575 729.9572,-230.0572 725.8126,-224.4161"/>
</g>
<!-- /system/bin/surfaceflinger&#45;&gt;com.android.systemui -->
<g id="edge33" class="edge">
<title>/system/bin/surfaceflinger&#45;&gt;com.android.systemui</title>
<path fill="none" stroke="#00ffff" d="M792.6204,-197.1686C783.1792,-206.8889 767.2047,-218.9294 750.3232,-229.1567"/>
<polygon fill="#00ffff" stroke="#00ffff" points="748.3298,-226.267 741.4424,-234.3178 751.8471,-232.3192 748.3298,-226.267"/>
</g>
<!-- com.android.launcher3 -->
<g id="node12" class="node">
<title>com.android.launcher3</title>
<ellipse fill="#006699" stroke="#ffffff" cx="946.5404" cy="-251" rx="118.0794" ry="18"/>
<text text-anchor="middle" x="946.5404" y="-247.3" font-family="Helvetica,sans-Serif" font-size="14.00" fill="#ffffff">com.android.launcher3</text>
</g>
<!-- /system/bin/surfaceflinger&#45;&gt;com.android.launcher3 -->
<g id="edge24" class="edge">
<title>/system/bin/surfaceflinger&#45;&gt;com.android.launcher3</title>
<path fill="none" stroke="#ffffff" d="M819.5292,-196.7978C839.0556,-206.9444 866.0068,-219.7089 890.2048,-230.3018"/>
<polygon fill="#ffffff" stroke="#ffffff" points="889.104,-233.6389 899.6719,-234.3942 891.8816,-227.2135 889.104,-233.6389"/>
</g>
<!-- /sbin/healthd -->
<g id="node3" class="node">
<title>/sbin/healthd</title>
<ellipse fill="#006699" stroke="#ffffff" cx="763.5404" cy="-35" rx="70.6878" ry="18"/>
<text text-anchor="middle" x="763.5404" y="-31.3" font-family="Helvetica,sans-Serif" font-size="14.00" fill="#ffffff">/sbin/healthd</text>
</g>
<!-- /sbin/healthd&#45;&gt;system_server -->
<g id="edge1" class="edge">
<title>/sbin/healthd&#45;&gt;system_server</title>
<path fill="none" stroke="#ffffff" d="M771.1106,-53.1686C774.3897,-61.0383 778.3024,-70.4288 781.9348,-79.1467"/>
<polygon fill="#ffffff" stroke="#ffffff" points="778.7912,-80.7021 785.8682,-88.5867 785.2527,-78.0098 778.7912,-80.7021"/>
</g>
<!-- async RPC -->
<g id="node4" class="node">
<title>async RPC</title>
<ellipse fill="#006699" stroke="#ffffff" cx="1262.5404" cy="-35" rx="58.4896" ry="18"/>
<text text-anchor="middle" x="1262.5404" y="-31.3" font-family="Helvetica,sans-Serif" font-size="14.00" fill="#ffffff">async RPC</text>
</g>
<!-- async RPC&#45;&gt;system_server -->
<g id="edge2" class="edge">
<title>async RPC&#45;&gt;system_server</title>
<path fill="none" stroke="#00ffff" d="M1209.3532,-42.5015C1125.6368,-54.9077 963.1082,-79.8131 867.891,-94.7849"/>
<polygon fill="#00ffff" stroke="#00ffff" points="867.0915,-91.3676 857.7578,-96.3808 868.1806,-98.2823 867.0915,-91.3676"/>
</g>
<!-- async RPC&#45;&gt;system_server -->
<g id="edge36" class="edge">
<title>async RPC&#45;&gt;system_server</title>
<path fill="none" stroke="#00ffff" stroke-dasharray="1,5" d="M1211.0034,-43.6134C1128.6206,-56.6817 967.0029,-81.5168 870.7782,-95.9155"/>
<polygon fill="#00ffff" stroke="#00ffff" points="860.8144,-97.404 870.0397,-91.4758 865.7595,-96.6652 870.7046,-95.9264 870.7046,-95.9264 870.7046,-95.9264 865.7595,-96.6652 871.3696,-100.377 860.8144,-97.404 860.8144,-97.404"/>
</g>
<!-- async RPC&#45;&gt;/system/bin/surfaceflinger -->
<g id="edge30" class="edge">
<title>async RPC&#45;&gt;/system/bin/surfaceflinger</title>
<path fill="none" stroke="#00ffff" d="M1220.9197,-47.779C1138.5586,-73.0669 954.3482,-129.6262 856.8565,-159.5597"/>
<polygon fill="#00ffff" stroke="#00ffff" points="855.6586,-156.2661 847.1264,-162.5471 857.7133,-162.9578 855.6586,-156.2661"/>
</g>
<!-- async RPC&#45;&gt;com.android.systemui -->
<g id="edge10" class="edge">
<title>async RPC&#45;&gt;com.android.systemui</title>
<path fill="none" stroke="#00ffff" d="M1282.9815,-51.9408C1323.3274,-82.9618 1404.5511,-150.0144 1360.5404,-197 1318.6739,-241.6964 871.4465,-226.5962 810.5404,-233 801.4844,-233.9522 792.0747,-235.0742 782.7084,-236.2851"/>
<polygon fill="#00ffff" stroke="#00ffff" points="782.0328,-232.844 772.5807,-237.6301 782.9544,-239.7831 782.0328,-232.844"/>
</g>
<!-- async RPC&#45;&gt;com.android.systemui -->
<g id="edge34" class="edge">
<title>async RPC&#45;&gt;com.android.systemui</title>
<path fill="none" stroke="#00ffff" stroke-dasharray="1,5" d="M1291.6455,-50.7414C1339.1797,-81.2031 1423.1272,-149.3994 1378.5404,-197 1336.6739,-241.6964 889.4465,-226.5962 828.5404,-233 816.3348,-234.2833 803.4866,-235.8752 790.7753,-237.5774"/>
<polygon fill="#00ffff" stroke="#00ffff" points="780.6255,-238.9623 789.9252,-233.1516 785.5796,-238.2863 790.5337,-237.6103 790.5337,-237.6103 790.5337,-237.6103 785.5796,-238.2863 791.1421,-242.069 780.6255,-238.9623 780.6255,-238.9623"/>
</g>
<!-- async RPC&#45;&gt;com.android.email -->
<g id="edge4" class="edge">
<title>async RPC&#45;&gt;com.android.email</title>
<path fill="none" stroke="#00ffff" d="M1257.8966,-52.9465C1255.4132,-77.4148 1255.1259,-121.5104 1257.0346,-150.5201"/>
<polygon fill="#00ffff" stroke="#00ffff" points="1253.5738,-151.1443 1257.8737,-160.8273 1260.5507,-150.5762 1253.5738,-151.1443"/>
</g>
<!-- async RPC&#45;&gt;com.android.email -->
<g id="edge13" class="edge">
<title>async RPC&#45;&gt;com.android.email</title>
<path fill="none" stroke="#00ffff" stroke-dasharray="1,5" d="M1267.1842,-52.9465C1269.6675,-77.4148 1269.9548,-121.5104 1268.0461,-150.5201"/>
<polygon fill="#00ffff" stroke="#00ffff" points="1267.207,-160.8273 1263.5333,-150.4951 1267.6128,-155.8438 1268.0185,-150.8603 1268.0185,-150.8603 1268.0185,-150.8603 1267.6128,-155.8438 1272.5037,-151.2254 1267.207,-160.8273 1267.207,-160.8273"/>
</g>
<!-- async RPC&#45;&gt;com.android.phone -->
<g id="edge7" class="edge">
<title>async RPC&#45;&gt;com.android.phone</title>
<path fill="none" stroke="#00ffff" d="M1237.533,-51.5186C1198.634,-77.2134 1123.5231,-126.8279 1079.3503,-156.0063"/>
<polygon fill="#00ffff" stroke="#00ffff" points="1077.3631,-153.1242 1070.9482,-161.5563 1081.2213,-158.965 1077.3631,-153.1242"/>
</g>
<!-- com.android.gallery3d -->
<g id="node11" class="node">
<title>com.android.gallery3d</title>
<ellipse fill="#006699" stroke="#ffffff" cx="1510.5404" cy="-107" rx="115.8798" ry="18"/>
<text text-anchor="middle" x="1510.5404" y="-103.3" font-family="Helvetica,sans-Serif" font-size="14.00" fill="#ffffff">com.android.gallery3d</text>
</g>
<!-- async RPC&#45;&gt;com.android.gallery3d -->
<g id="edge16" class="edge">
<title>async RPC&#45;&gt;com.android.gallery3d</title>
<path fill="none" stroke="#00ffff" stroke-dasharray="1,5" d="M1305.1731,-47.3772C1343.9276,-58.6285 1401.6669,-75.3916 1446.0617,-88.2804"/>
<polygon fill="#00ffff" stroke="#00ffff" points="1455.8915,-91.1342 1445.0334,-92.6676 1451.0898,-89.7401 1446.288,-88.346 1446.288,-88.346 1446.288,-88.346 1451.0898,-89.7401 1447.5427,-84.0245 1455.8915,-91.1342 1455.8915,-91.1342"/>
</g>
<!-- async RPC&#45;&gt;com.android.launcher3 -->
<g id="edge23" class="edge">
<title>async RPC&#45;&gt;com.android.launcher3</title>
<path fill="none" stroke="#00ffff" d="M1319.6852,-39.2001C1419.0724,-47.0896 1615.1718,-65.4703 1635.5404,-89 1646.0123,-101.0971 1644.8867,-112.0136 1635.5404,-125 1576.6753,-206.791 1518.9203,-175.1769 1420.5404,-197 1302.422,-223.2016 1164.7654,-237.0837 1068.3295,-244.1744"/>
<polygon fill="#00ffff" stroke="#00ffff" points="1067.9708,-240.6911 1058.2487,-244.9019 1068.4748,-247.6729 1067.9708,-240.6911"/>
</g>
<!-- com.android.systemui&#45;&gt;system_server -->
<g id="edge3" class="edge">
<title>com.android.systemui&#45;&gt;system_server</title>
<path fill="none" stroke="#ffffff" d="M663.368,-233.5496C640.6195,-214.7538 618.4457,-184.3986 634.5404,-161 644.8021,-146.0814 685.0527,-131.538 722.7647,-121.3097"/>
<polygon fill="#ffffff" stroke="#ffffff" points="724.0093,-124.6015 732.7907,-118.6739 722.2294,-117.8316 724.0093,-124.6015"/>
</g>
<!-- com.android.systemui&#45;&gt;system_server -->
<g id="edge35" class="edge">
<title>com.android.systemui&#45;&gt;system_server</title>
<path fill="none" stroke="#00ffff" d="M689.4133,-232.8568C676.0844,-214.0144 654.6419,-184.1132 670.5404,-161 679.5161,-147.9511 711.4348,-135.1892 740.7439,-125.3509"/>
<polygon fill="#00ffff" stroke="#00ffff" points="742.1386,-128.5768 750.5465,-122.1303 739.9536,-121.9265 742.1386,-128.5768"/>
</g>
<!-- com.android.systemui&#45;&gt;/system/bin/surfaceflinger -->
<g id="edge21" class="edge">
<title>com.android.systemui&#45;&gt;/system/bin/surfaceflinger</title>
<path fill="none" stroke="#00ffff" d="M708.1926,-232.9794C719.0735,-223.6313 734.4847,-212.107 749.3849,-202.1105"/>
<polygon fill="#00ffff" stroke="#00ffff" points="751.6123,-204.8356 758.0608,-196.4292 747.7775,-198.9795 751.6123,-204.8356"/>
</g>
<!-- com.android.systemui&#45;&gt;/system/bin/surfaceflinger -->
<g id="edge32" class="edge">
<title>com.android.systemui&#45;&gt;/system/bin/surfaceflinger</title>
<path fill="none" stroke="#ffffff" d="M730.6154,-233.8285C744.7341,-224.8447 760.3243,-213.6837 772.7102,-203.7811"/>
<polygon fill="#ffffff" stroke="#ffffff" points="775.2346,-206.2356 780.7156,-197.1686 770.7767,-200.8386 775.2346,-206.2356"/>
</g>
<!-- com.android.email&#45;&gt;system_server -->
<g id="edge8" class="edge">
<title>com.android.email&#45;&gt;system_server</title>
<path fill="none" stroke="#00ffff" d="M1190.2406,-166.779C1178.3191,-164.8131 1166.0872,-162.8257 1154.5404,-161 1056.6481,-145.5218 943.6324,-128.8017 870.5064,-118.1337"/>
<polygon fill="#00ffff" stroke="#00ffff" points="870.8587,-114.6481 860.4585,-116.6693 869.8492,-121.575 870.8587,-114.6481"/>
</g>
<!-- com.android.email&#45;&gt;system_server -->
<g id="edge20" class="edge">
<title>com.android.email&#45;&gt;system_server</title>
<path fill="none" stroke="#ffffff" d="M1198.7895,-165.2435C1190.0009,-163.7899 1181.0832,-162.3507 1172.5404,-161 1070.2547,-144.8272 951.4575,-127.2983 874.2248,-116.7346"/>
<polygon fill="#ffffff" stroke="#ffffff" points="874.4592,-113.2343 864.0787,-115.3546 873.5157,-120.1704 874.4592,-113.2343"/>
</g>
<!-- com.facebook.katana -->
<g id="node9" class="node">
<title>com.facebook.katana</title>
<ellipse fill="#006699" stroke="#ffffff" cx="964.5404" cy="-35" rx="111.5806" ry="18"/>
<text text-anchor="middle" x="964.5404" y="-31.3" font-family="Helvetica,sans-Serif" font-size="14.00" fill="#ffffff">com.facebook.katana</text>
</g>
<!-- com.facebook.katana&#45;&gt;system_server -->
<g id="edge11" class="edge">
<title>com.facebook.katana&#45;&gt;system_server</title>
<path fill="none" stroke="#00ffff" d="M924.4485,-51.8808C899.3916,-62.431 867.005,-76.0675 840.7145,-87.1372"/>
<polygon fill="#00ffff" stroke="#00ffff" points="839.1874,-83.9825 831.3292,-91.0889 841.9038,-90.434 839.1874,-83.9825"/>
</g>
<!-- com.facebook.katana&#45;&gt;/system/bin/surfaceflinger -->
<g id="edge15" class="edge">
<title>com.facebook.katana&#45;&gt;/system/bin/surfaceflinger</title>
<path fill="none" stroke="#00ffff" d="M950.5192,-52.9388C934.9568,-72.1524 908.4666,-102.8621 881.5404,-125 867.4196,-136.6096 850.5837,-147.5393 835.4369,-156.4882"/>
<polygon fill="#00ffff" stroke="#00ffff" points="833.6482,-153.4794 826.7472,-161.5185 837.1552,-159.5376 833.6482,-153.4794"/>
</g>
<!-- /system/bin/audioserver -->
<g id="node10" class="node">
<title>/system/bin/audioserver</title>
<ellipse fill="#006699" stroke="#ffffff" cx="551.5404" cy="-35" rx="122.6784" ry="18"/>
<text text-anchor="middle" x="551.5404" y="-31.3" font-family="Helvetica,sans-Serif" font-size="14.00" fill="#ffffff">/system/bin/audioserver</text>
</g>
<!-- /system/bin/audioserver&#45;&gt;system_server -->
<g id="edge14" class="edge">
<title>/system/bin/audioserver&#45;&gt;system_server</title>
<path fill="none" stroke="#ffffff" stroke-dasharray="1,5" d="M605.8499,-51.1582C644.3902,-62.6247 696.0578,-77.9969 735.4259,-89.7097"/>
<polygon fill="#ffffff" stroke="#ffffff" points="745.1542,-92.6041 734.2862,-94.0655 740.3618,-91.1783 735.5694,-89.7524 735.5694,-89.7524 735.5694,-89.7524 740.3618,-91.1783 736.8527,-85.4392 745.1542,-92.6041 745.1542,-92.6041"/>
</g>
<!-- com.android.launcher3&#45;&gt;/system/bin/surfaceflinger -->
<g id="edge18" class="edge">
<title>com.android.launcher3&#45;&gt;/system/bin/surfaceflinger</title>
<path fill="none" stroke="#00ffff" d="M910.1087,-233.8557C888.9958,-223.9202 862.2099,-211.3151 839.6402,-200.6941"/>
<polygon fill="#00ffff" stroke="#00ffff" points="841.1159,-197.5204 830.5774,-196.4292 838.1353,-203.8541 841.1159,-197.5204"/>
</g>
<!-- com.android.launcher3&#45;&gt;/system/bin/surfaceflinger -->
<g id="edge22" class="edge">
<title>com.android.launcher3&#45;&gt;/system/bin/surfaceflinger</title>
<path fill="none" stroke="#ffffff" d="M920.5863,-233.2203C901.2171,-223.1539 874.5296,-210.5064 850.4714,-199.9591"/>
<polygon fill="#ffffff" stroke="#ffffff" points="851.6204,-196.6426 841.053,-195.8808 848.8388,-203.0663 851.6204,-196.6426"/>
</g>
</g>
</svg>
