<?xml version="1.0" encoding="UTF-8" standalone="no"?>
<!DOCTYPE svg PUBLIC "-//W3C//DTD SVG 1.1//EN"
 "http://www.w3.org/Graphics/SVG/1.1/DTD/svg11.dtd">
<!-- Generated by graphviz version 2.38.0 (20140413.2041)
 -->
<!-- Title: %3 Pages: 1 -->
<svg width="147pt" height="204pt"
 viewBox="0.00 0.00 147.35 204.00" xmlns="http://www.w3.org/2000/svg" xmlns:xlink="http://www.w3.org/1999/xlink">
<g id="graph0" class="graph" transform="scale(1 1) rotate(0) translate(4 200)">
<title>%3</title>
<polygon fill="white" stroke="none" points="-4,4 -4,-200 143.347,-200 143.347,4 -4,4"/>
<!-- A -->
<g id="node1" class="node"><title>A</title>
<ellipse fill="none" stroke="black" cx="85.3466" cy="-178" rx="38.1938" ry="18"/>
<text text-anchor="middle" x="85.3466" y="-174.3" font-family="Times,serif" font-size="14.00">Node A</text>
</g>
<!-- B -->
<g id="node2" class="node"><title>B</title>
<ellipse fill="none" stroke="black" cx="38.3466" cy="-91" rx="38.1938" ry="18"/>
<text text-anchor="middle" x="38.3466" y="-87.3" font-family="Times,serif" font-size="14.00">Node B</text>
</g>
<!-- A&#45;&gt;B -->
<g id="edge1" class="edge"><title>A&#45;&gt;B</title>
<path fill="none" stroke="black" d="M72.0594,-160.824C67.6928,-155.083 63.0214,-148.444 59.3466,-142 55.149,-134.639 51.3073,-126.274 48.0901,-118.521"/>
<polygon fill="black" stroke="black" points="51.3122,-117.151 44.3691,-109.148 44.8062,-119.734 51.3122,-117.151"/>
<text text-anchor="middle" x="78.8466" y="-130.8" font-family="Times,serif" font-size="14.00">Edge 1</text>
</g>
<!-- C -->
<g id="node3" class="node"><title>C</title>
<ellipse fill="none" stroke="black" cx="87.3466" cy="-18" rx="27" ry="18"/>
<text text-anchor="middle" x="87.3466" y="-14.3" font-family="Times,serif" font-size="14.00">C</text>
</g>
<!-- A&#45;&gt;C -->
<g id="edge2" class="edge"><title>A&#45;&gt;C</title>
<path fill="none" stroke="black" d="M92.9434,-160.251C95.1426,-154.578 97.2459,-148.125 98.3466,-142 104.253,-109.135 98.9009,-70.7315 93.8033,-45.6939"/>
<polygon fill="black" stroke="black" points="97.2059,-44.8691 91.6678,-35.837 90.3646,-46.3514 97.2059,-44.8691"/>
<text text-anchor="middle" x="119.847" y="-87.3" font-family="Times,serif" font-size="14.00">Edge 2</text>
</g>
<!-- B&#45;&gt;C -->
<g id="edge3" class="edge"><title>B&#45;&gt;C</title>
<path fill="none" stroke="black" d="M49.7113,-73.5327C55.9214,-64.5345 63.73,-53.22 70.6225,-43.2329"/>
<polygon fill="black" stroke="black" points="73.5811,-45.1079 76.3805,-34.8896 67.8199,-41.1318 73.5811,-45.1079"/>
</g>
</g>
</svg>
