<?xml version="1.0" encoding="UTF-8" standalone="no"?>
<!DOCTYPE svg PUBLIC "-//W3C//DTD SVG 1.1//EN"
 "http://www.w3.org/Graphics/SVG/1.1/DTD/svg11.dtd">
<!-- Generated by graphviz version 2.38.0 (20140413.2041)
 -->
<!-- Title: %3 Pages: 1 -->
<svg width="174pt" height="228pt"
 viewBox="0.00 0.00 173.53 228.00" xmlns="http://www.w3.org/2000/svg" xmlns:xlink="http://www.w3.org/1999/xlink">
<g id="graph0" class="graph" transform="scale(1 1) rotate(0) translate(4 224)">
<title>%3</title>
<polygon fill="#333333" stroke="none" points="-4,4 -4,-224 169.53,-224 169.53,4 -4,4"/>
<text text-anchor="middle" x="82.7652" y="-9.2" font-family="Times,serif" font-size="16.00" fill="white">A Fancy Graph</text>
<!-- A -->
<g id="node1" class="node"><title>A</title>
<polygon fill="#006699" stroke="white" points="145.091,-44 121.811,-62 75.25,-62 51.9697,-44 75.25,-26 121.811,-26 145.091,-44"/>
<text text-anchor="middle" x="98.5303" y="-40.3" font-family="Helvetica,sans-Serif" font-size="14.00" fill="white">Node A</text>
</g>
<!-- B -->
<g id="node2" class="node"><title>B</title>
<polygon fill="#006699" stroke="white" points="93.0909,-129 69.8106,-147 23.25,-147 -0.0303228,-129 23.25,-111 69.8106,-111 93.0909,-129"/>
<text text-anchor="middle" x="46.5303" y="-125.3" font-family="Helvetica,sans-Serif" font-size="14.00" fill="white">Node B</text>
</g>
<!-- A&#45;&gt;B -->
<g id="edge1" class="edge"><title>A&#45;&gt;B</title>
<path fill="none" stroke="white" stroke-dasharray="5,2" d="M82.8932,-62.1599C78.2903,-67.6455 73.4442,-73.8855 69.5303,-80 65.2834,-86.6348 61.3144,-94.1736 57.9092,-101.279"/>
<polygon fill="white" stroke="white" points="53.6421,-110.573 53.7251,-99.6072 55.7284,-106.029 57.8146,-101.485 57.8146,-101.485 57.8146,-101.485 55.7284,-106.029 61.9042,-103.362 53.6421,-110.573 53.6421,-110.573"/>
<text text-anchor="middle" x="92.5303" y="-83.4" font-family="Courier,monospace" font-size="12.00" fill="white">Edge 1</text>
</g>
<!-- C -->
<g id="node3" class="node"><title>C</title>
<polygon fill="#006699" stroke="white" points="129.53,-202 116.03,-220 89.0303,-220 75.5303,-202 89.0303,-184 116.03,-184 129.53,-202"/>
<text text-anchor="middle" x="102.53" y="-198.3" font-family="Helvetica,sans-Serif" font-size="14.00" fill="white">C</text>
</g>
<!-- A&#45;&gt;C -->
<g id="edge2" class="edge"><title>A&#45;&gt;C</title>
<path fill="none" stroke="white" stroke-dasharray="5,2" d="M108.807,-62.2312C111.55,-67.7196 114.137,-73.9433 115.53,-80 122.865,-111.889 116.567,-149.48 110.447,-174.202"/>
<polygon fill="white" stroke="white" points="107.875,-183.955 106.074,-173.138 109.15,-179.12 110.425,-174.286 110.425,-174.286 110.425,-174.286 109.15,-179.12 114.776,-175.433 107.875,-183.955 107.875,-183.955"/>
<text text-anchor="middle" x="142.53" y="-125.9" font-family="Courier,monospace" font-size="12.00" fill="white">Edge 2</text>
</g>
<!-- B&#45;&gt;C -->
<g id="edge3" class="edge"><title>B&#45;&gt;C</title>
<path fill="none" stroke="white" stroke-dasharray="5,2" d="M60.0863,-147.187C66.8961,-155.821 75.2756,-166.445 82.7851,-175.966"/>
<polygon fill="white" stroke="white" points="89.0991,-183.971 79.373,-178.906 86.0027,-180.045 82.9062,-176.119 82.9062,-176.119 82.9062,-176.119 86.0027,-180.045 86.4395,-173.333 89.0991,-183.971 89.0991,-183.971"/>
</g>
</g>
</svg>
