<?xml version="1.0" encoding="UTF-8" standalone="no"?>
<!DOCTYPE svg PUBLIC "-//W3C//DTD SVG 1.1//EN"
 "http://www.w3.org/Graphics/SVG/1.1/DTD/svg11.dtd">
<!-- Generated by graphviz version 2.38.0 (20140413.2041)
 -->
<!-- Title: %3 Pages: 1 -->
<svg width="230pt" height="336pt"
 viewBox="0.00 0.00 229.50 336.00" xmlns="http://www.w3.org/2000/svg" xmlns:xlink="http://www.w3.org/1999/xlink">
<g id="graph0" class="graph" transform="scale(1 1) rotate(0) translate(4 332)">
<title>%3</title>
<polygon fill="white" stroke="none" points="-4,4 -4,-332 225.5,-332 225.5,4 -4,4"/>
<!-- A -->
<g id="node1" class="node"><title>A</title>
<ellipse fill="none" stroke="black" cx="43" cy="-310" rx="38.1938" ry="18"/>
<text text-anchor="middle" x="43" y="-306.3" font-family="Times,serif" font-size="14.00">Node A</text>
</g>
<!-- B -->
<g id="node2" class="node"><title>B</title>
<ellipse fill="none" stroke="black" cx="106" cy="-211.5" rx="38.1938" ry="18"/>
<text text-anchor="middle" x="106" y="-207.8" font-family="Times,serif" font-size="14.00">Node B</text>
</g>
<!-- A&#45;&gt;B -->
<g id="edge1" class="edge"><title>A&#45;&gt;B</title>
<path fill="none" stroke="black" d="M53.6871,-292.63C63.5524,-277.519 78.3474,-254.857 89.6888,-237.485"/>
<polygon fill="black" stroke="black" points="92.7245,-239.237 95.2605,-228.95 86.8631,-235.41 92.7245,-239.237"/>
<text text-anchor="middle" x="94.5" y="-262.8" font-family="Times,serif" font-size="14.00">Edge 1</text>
</g>
<!-- C -->
<g id="node3" class="node"><title>C</title>
<ellipse fill="none" stroke="black" cx="27" cy="-102" rx="27" ry="18"/>
<text text-anchor="middle" x="27" y="-98.3" font-family="Times,serif" font-size="14.00">C</text>
</g>
<!-- A&#45;&gt;C -->
<g id="edge2" class="edge"><title>A&#45;&gt;C</title>
<path fill="none" stroke="black" d="M35.5461,-292.069C30.0196,-278.547 22.9541,-258.954 20,-241 13.7422,-202.968 18.0969,-158.315 22.2078,-130.334"/>
<polygon fill="black" stroke="black" points="25.7168,-130.548 23.8066,-120.127 18.8012,-129.465 25.7168,-130.548"/>
<text text-anchor="middle" x="39.5" y="-207.8" font-family="Times,serif" font-size="14.00">Edge 2</text>
</g>
<!-- B&#45;&gt;C -->
<g id="edge3" class="edge"><title>B&#45;&gt;C</title>
<path fill="none" stroke="black" d="M94.0016,-194.173C80.7826,-176.185 59.4057,-147.096 44.3596,-126.622"/>
<polygon fill="black" stroke="black" points="47.0832,-124.418 38.3411,-118.433 41.4426,-128.563 47.0832,-124.418"/>
</g>
<!-- E -->
<g id="node5" class="node"><title>E</title>
<polygon fill="#cccccc" stroke="black" points="146,-131 88,-131 88,-73 146,-73 146,-131"/>
<text text-anchor="middle" x="117" y="-98.3" font-family="Times,serif" font-size="14.00">Node E</text>
</g>
<!-- B&#45;&gt;E -->
<g id="edge7" class="edge"><title>B&#45;&gt;E</title>
<path fill="none" stroke="red" d="M107.767,-193.228C109.199,-179.237 111.27,-159.003 113.087,-141.24"/>
<polygon fill="red" stroke="red" points="116.585,-141.437 114.121,-131.132 109.621,-140.724 116.585,-141.437"/>
</g>
<!-- D -->
<g id="node4" class="node"><title>D</title>
<polygon fill="#cccccc" stroke="black" points="221.5,-241 162.5,-241 162.5,-182 221.5,-182 221.5,-241"/>
<text text-anchor="middle" x="192" y="-207.8" font-family="Times,serif" font-size="14.00">Node D</text>
</g>
<!-- D&#45;&gt;E -->
<g id="edge4" class="edge"><title>D&#45;&gt;E</title>
<path fill="none" stroke="black" d="M162.265,-188.303C154.236,-181.22 146.094,-172.891 140,-164 135.178,-156.965 131.202,-148.785 127.991,-140.745"/>
<polygon fill="black" stroke="black" points="131.18,-139.276 124.45,-131.094 124.609,-141.687 131.18,-139.276"/>
<text text-anchor="middle" x="159.5" y="-152.8" font-family="Times,serif" font-size="14.00">Edge 3</text>
</g>
<!-- F -->
<g id="node6" class="node"><title>F</title>
<polygon fill="#cccccc" stroke="black" points="186,-36 150,-36 150,-0 186,-0 186,-36"/>
<text text-anchor="middle" x="168" y="-14.3" font-family="Times,serif" font-size="14.00">F</text>
</g>
<!-- D&#45;&gt;F -->
<g id="edge5" class="edge"><title>D&#45;&gt;F</title>
<path fill="none" stroke="black" d="M188.407,-181.831C183.821,-145.237 175.942,-82.3725 171.434,-46.399"/>
<polygon fill="black" stroke="black" points="174.867,-45.6441 170.15,-36.1569 167.921,-46.5146 174.867,-45.6441"/>
<text text-anchor="middle" x="200.5" y="-98.3" font-family="Times,serif" font-size="14.00">Edge 4</text>
</g>
<!-- E&#45;&gt;F -->
<g id="edge6" class="edge"><title>E&#45;&gt;F</title>
<path fill="none" stroke="black" d="M134.551,-72.7803C140.256,-63.6074 146.551,-53.4863 152.126,-44.5221"/>
<polygon fill="black" stroke="black" points="155.104,-46.3617 157.413,-36.0216 149.16,-42.6647 155.104,-46.3617"/>
</g>
</g>
</svg>
